<svg width="770" height="770" viewBox="0 0 770 770" fill="none" xmlns="http://www.w3.org/2000/svg">
<g clip-path="url(#clip0_9_327)">
<circle cx="385" cy="385" r="385" fill="#00E0FF"/>
<mask id="mask0_9_327" style="mask-type:alpha" maskUnits="userSpaceOnUse" x="0" y="0" width="770" height="770">
<circle cx="385" cy="385" r="385" fill="#00E0FF"/>
</mask>
<g mask="url(#mask0_9_327)">
<path d="M389 357.5C375.833 364.5 349.9 382 351.5 396C353.5 413.5 342 455 361.5 450.5C381 446 411.5 427.5 414.5 445C417.5 462.5 444 578.5 441 593C438.6 604.6 449.667 597.833 455.5 593C461.333 578.667 472.6 548 471 540C469 530 487.5 465.5 498.5 467.5C509.5 469.5 486.5 412.5 471 407.5C469.833 396.833 462.2 375.3 441 374.5C414.5 373.5 389 360.5 389 367.5V357.5Z" fill="#52A58E"/>
<path d="M216.5 477C206.833 471.5 185.3 460.8 176.5 462C165.5 463.5 153.5 492 156.5 498.5C159.5 505 163 540.5 173 537C181 534.2 181.667 546.833 181 553.5L173 640.5C174.833 641.667 179 642.8 181 638C183.5 632 201 558 208.5 558C216 558 246 566.5 247.5 558C249 549.5 244.5 522.5 251 519C257.5 515.5 255 503 241 498.5C227 494 212.499 480 216.5 477Z" fill="#52A58E"/>
<path d="M189.5 133.5C199 131.833 220.3 132.9 229.5 150.5C241 172.5 246.5 187.5 238 191C231.2 193.8 235.167 209.167 238 216.5C244 209.167 256.7 195.4 259.5 199C262.3 202.6 273 187.833 278 180C286.667 177.5 304.1 171.5 304.5 167.5C305 162.5 313.5 152 312.5 147C311.5 142 322.5 127 315 123C307.5 119 301 120 294 117C287 114 294.5 106.5 299.5 104.5C304.5 102.5 259.5 101.5 259.5 104.5C259.5 107.5 212.5 111 213 117C213.5 123 197 111 196 117C195 123 184 127 184.5 128C184.9 128.8 188 132 189.5 133.5Z" fill="#52A58E"/>
<path d="M246 312.5C220 323.333 170.7 349 181.5 365C195 385 262 433.5 260.5 452C259.3 466.8 293 485.833 310 493.5C289.833 454.5 254.7 374.2 275.5 365C301.5 353.5 341 307.5 333 291C325 274.5 314.5 233.5 295 227C275.5 220.5 246 299.5 246 312.5Z" fill="#00C2FF"/>
<path d="M404.5 276.5C418.334 275 449.3 269.3 462.5 258.5C475.7 247.7 479 236.667 479 232.5C483.667 226.667 496.9 214.5 512.5 212.5C528.1 210.5 551.667 211.667 561.5 212.5C571.667 213 594.7 212.2 605.5 205C616.3 197.8 625 183 628 176.5C639 168.833 662.8 155 670 161C677.2 167 706.334 159.5 720 155L785.5 286C768.834 297 732.4 316.5 720 306.5C707.6 296.5 714.834 346.333 720 372.5C711 380.667 689.8 396 677 392C664.2 388 676 413.667 683.5 427C667.167 414.333 636.5 388.2 644.5 385C654.5 381 605.5 396.5 605.5 404.5C605.5 412.5 600.5 373.5 581 366.5C561.5 359.5 521.5 350.5 512.5 353C503.5 355.5 521 396 529 397C537 398 527.5 423.5 520 417.5C512.5 411.5 494.5 397.5 495.5 385C496.5 372.5 493 348 490 340C487 332 500.5 328.5 506.5 317.5C512.5 306.5 501 295.5 490 286C479 276.5 445 302 438 294C431 286 418 294 404.5 294C393.7 294 400 282.333 404.5 276.5Z" fill="#52A58E"/>
<path d="M83.5 228C89.3333 240.333 103.2 265.6 112 268C123 271 143.5 298 150.5 289.5C157.5 281 174 255 168.5 248C163 241 203 268 194.5 268C186 268 159 290 159.5 294C160 298 147.5 324 150.5 329.5C153.5 335 143.5 355 131.5 353.5C119.5 352 88.5 363.5 88.5 368V403.5C88.5 405.5 46.5 353.5 47 346C47.5 338.5 20.5005 303.5 27.0005 294C33.5005 284.5 20.9992 255 33.9996 248C47 241 41.4996 213 52.9996 211C62.1996 209.4 77.1665 221.667 83.5 228Z" fill="#52A58E"/>
<path d="M157 31C195.833 46 413.4 86.1 455 74.5C496.6 62.9 530.667 27.6667 542.5 11.5L286.5 -50L157 31Z" fill="#00C2FF"/>
<path d="M24.5 430.5C69.3333 453.833 154.7 516.1 137.5 578.5C120.3 640.9 119.667 708.5 121.5 734.5L-88.5 457.5C-56.1667 445.495 11.7 423.287 24.5 430.5Z" fill="#00C2FF"/>
<path d="M336 498C353.834 499.167 389.9 514.7 391.5 567.5C393.5 633.5 418.5 668.5 443 652C467.5 635.5 520.5 619 529 598.5C537.5 578 523 498 549.5 498C554.167 478.667 568.9 445.8 590.5 469C617.5 498 671 547 683 541C695 535 689.5 752.5 640 760.5C600.4 766.9 370.5 797.5 260.5 812C235.167 771 188.6 686.5 205 676.5C225.5 664 309 488.088 336 498Z" fill="#00C2FF"/>
<path d="M498 223C488.333 218.333 468.8 207.5 468 201.5C467 194 480 189.5 483 192C486 194.5 494.5 196.5 490 192C485.5 187.5 460.5 178 460.5 176C460.5 174 431.5 167.5 414 211.5C408.833 215.667 398.5 225 398.5 229C398.5 233 408.833 230.667 414 229L419 236.5C421.833 237.167 427.3 237.2 426.5 232C425.5 225.5 418.5 211.5 422.5 211.5C425.7 211.5 436.167 202.167 441 197.5L456.5 201.5C452.333 205.333 444.5 214 446.5 218C448.5 222 476.333 229 490 232L498 223Z" fill="#52A58E"/>
<path d="M798.026 204.5C591.859 266 132.226 439.5 -56.9744 641.5C-246.174 843.5 -232.474 379.667 -201.974 122.5L331.025 -62L828.525 26.5L798.026 204.5Z" fill="url(#paint0_linear_9_327)"/>
</g>
</g>
<defs>
<linearGradient id="paint0_linear_9_327" x1="304.263" y1="-62" x2="304.263" y2="691.08" gradientUnits="userSpaceOnUse">
<stop stop-color="white" stop-opacity="0.86"/>
<stop offset="1" stop-color="white" stop-opacity="0"/>
</linearGradient>
<clipPath id="clip0_9_327">
<rect width="770" height="770" fill="white"/>
</clipPath>
</defs>
</svg>
