<svg width="770" height="770" viewBox="0 0 770 770" fill="none" xmlns="http://www.w3.org/2000/svg">
<g clip-path="url(#clip0_9_247)">
<circle cx="385" cy="385" r="385" fill="#FF8A00"/>
<mask id="mask0_9_247" style="mask-type:alpha" maskUnits="userSpaceOnUse" x="0" y="0" width="770" height="770">
<circle cx="385" cy="385" r="385" fill="#FF8A00"/>
</mask>
<g mask="url(#mask0_9_247)">
<path d="M-119.5 380.5H954L944.5 580L-387.5 509L-119.5 380.5Z" fill="#9B7000"/>
<path d="M14.4297 53.2749C2.56946 249.009 330.528 337.847 836.43 99.2749C1149.06 -48.1539 1042.26 162.275 932.43 231.275C690.93 300.275 122.83 396.875 -217.57 231.275C-557.97 65.6749 -204.737 43.6083 14.4297 53.2749Z" fill="#E4A400"/>
<path d="M678.5 693C678.5 732.765 551.69 631.5 487.073 631.5C422.455 631.5 341 662.765 341 623C341 583.236 422.455 576 487.073 576C551.69 576 678.5 653.236 678.5 693Z" fill="#AE5E00"/>
<path d="M-35.5 569L873 631.5L712.5 729L-35.5 631.5V569Z" fill="#AE5E00"/>
<path d="M573 669C573 708.765 520.617 741 456 741C391.383 741 339 708.765 339 669C339 629.235 391.383 597 456 597C520.617 597 573 629.235 573 669Z" fill="#AE5E00"/>
<path d="M530 669C530 697.719 496.869 721 456 721C415.131 721 382 697.719 382 669C382 640.281 415.131 617 456 617C496.869 617 530 640.281 530 669Z" fill="#C56A00"/>
<path d="M510 668.5C510 687.002 485.6 702 455.5 702C425.4 702 401 687.002 401 668.5C401 649.998 425.4 635 455.5 635C485.6 635 510 649.998 510 668.5Z" fill="#E67C00"/>
<path d="M339 141.5C339 179.332 308.332 210 270.5 210C232.668 210 202 179.332 202 141.5C202 103.668 232.668 73 270.5 73C308.332 73 339 103.668 339 141.5Z" fill="#FFC700"/>
<path d="M511 113.5C511 128.688 498.688 141 483.5 141C468.312 141 456 128.688 456 113.5C456 98.3122 468.312 86 483.5 86C498.688 86 511 98.3122 511 113.5Z" fill="#FFC700"/>
<path d="M440 182.5C440 197.688 427.688 210 412.5 210C397.312 210 385 197.688 385 182.5C385 167.312 397.312 155 412.5 155C427.688 155 440 167.312 440 182.5Z" fill="#FFC700"/>
<path d="M326 113.5C326 128.688 313.688 141 298.5 141C283.312 141 271 128.688 271 113.5C271 98.3122 283.312 86 298.5 86C313.688 86 326 98.3122 326 113.5Z" fill="#FFE27B"/>
<path d="M415 196C415 203.732 408.732 210 401 210C393.268 210 387 203.732 387 196C387 188.268 393.268 182 401 182C408.732 182 415 188.268 415 196Z" fill="#FFE27B"/>
<path d="M816.5 154C395.558 253.011 228.657 399.816 -24.5 720.5L-412 -36H816.5V154Z" fill="url(#paint0_linear_9_247)"/>
</g>
</g>
<defs>
<linearGradient id="paint0_linear_9_247" x1="202.25" y1="-36" x2="202.25" y2="720.5" gradientUnits="userSpaceOnUse">
<stop stop-color="white" stop-opacity="0.57"/>
<stop offset="1" stop-color="white" stop-opacity="0"/>
</linearGradient>
<clipPath id="clip0_9_247">
<rect width="770" height="770" fill="white"/>
</clipPath>
</defs>
</svg>
