<svg width="770" height="770" viewBox="0 0 770 770" fill="none" xmlns="http://www.w3.org/2000/svg">
<g clip-path="url(#clip0_9_192)">
<mask id="mask0_9_192" style="mask-type:alpha" maskUnits="userSpaceOnUse" x="0" y="0" width="770" height="770">
<circle cx="385" cy="385" r="385" fill="#E25100"/>
</mask>
<g mask="url(#mask0_9_192)">
<circle cx="385" cy="385" r="385" fill="#E25100"/>
<g filter="url(#filter0_i_9_192)">
<path d="M367 210.5C367 275.946 313.946 329 248.5 329C183.054 329 130 275.946 130 210.5C130 145.054 183.054 92 248.5 92C313.946 92 367 145.054 367 210.5Z" fill="#B90000"/>
<path d="M350 580C350 635.781 304.781 681 249 681C193.219 681 148 635.781 148 580C148 524.219 193.219 479 249 479C304.781 479 350 524.219 350 580Z" fill="#B90000"/>
<path d="M684 409C684 446.555 653.555 477 616 477C578.445 477 548 446.555 548 409C548 371.445 578.445 341 616 341C653.555 341 684 371.445 684 409Z" fill="#B90000"/>
<path d="M585 173C585 193.435 568.435 210 548 210C527.565 210 511 193.435 511 173C511 152.565 527.565 136 548 136C568.435 136 585 152.565 585 173Z" fill="#B90000"/>
<path d="M511 281C511 296.464 498.464 309 483 309C467.536 309 455 296.464 455 281C455 265.536 467.536 253 483 253C498.464 253 511 265.536 511 281Z" fill="#B90000"/>
<path d="M406 709C406 724.464 393.464 737 378 737C362.536 737 350 724.464 350 709C350 693.536 362.536 681 378 681C393.464 681 406 693.536 406 709Z" fill="#B90000"/>
<path d="M395 64C395 79.464 382.464 92 367 92C351.536 92 339 79.464 339 64C339 48.536 351.536 36 367 36C382.464 36 395 48.536 395 64Z" fill="#B90000"/>
<path d="M249 424C249 439.464 236.464 452 221 452C205.536 452 193 439.464 193 424C193 408.536 205.536 396 221 396C236.464 396 249 408.536 249 424Z" fill="#B90000"/>
<path d="M125 366.5C125 376.717 116.717 385 106.5 385C96.2827 385 88 376.717 88 366.5C88 356.283 96.2827 348 106.5 348C116.717 348 125 356.283 125 366.5Z" fill="#B90000"/>
<path d="M585 630.5C585 658.39 562.39 681 534.5 681C506.61 681 484 658.39 484 630.5C484 602.61 506.61 580 534.5 580C562.39 580 585 602.61 585 630.5Z" fill="#B90000"/>
<path d="M485 423.5C485 465.197 451.197 499 409.5 499C367.803 499 334 465.197 334 423.5C334 381.803 367.803 348 409.5 348C451.197 348 485 381.803 485 423.5Z" fill="#B90000"/>
</g>
<path d="M699 159.5C360.326 242.661 234.647 363.586 40.5 614L-152.5 32.5L564.5 -116L699 159.5Z" fill="url(#paint0_linear_9_192)"/>
</g>
</g>
<defs>
<filter id="filter0_i_9_192" x="88" y="36" width="596" height="705" filterUnits="userSpaceOnUse" color-interpolation-filters="sRGB">
<feFlood flood-opacity="0" result="BackgroundImageFix"/>
<feBlend mode="normal" in="SourceGraphic" in2="BackgroundImageFix" result="shape"/>
<feColorMatrix in="SourceAlpha" type="matrix" values="0 0 0 0 0 0 0 0 0 0 0 0 0 0 0 0 0 0 127 0" result="hardAlpha"/>
<feOffset dy="4"/>
<feGaussianBlur stdDeviation="2"/>
<feComposite in2="hardAlpha" operator="arithmetic" k2="-1" k3="1"/>
<feColorMatrix type="matrix" values="0 0 0 0 0 0 0 0 0 0 0 0 0 0 0 0 0 0 0.25 0"/>
<feBlend mode="normal" in2="shape" result="effect1_innerShadow_9_192"/>
</filter>
<linearGradient id="paint0_linear_9_192" x1="273.25" y1="-116" x2="273.25" y2="614" gradientUnits="userSpaceOnUse">
<stop stop-color="#FF1010"/>
<stop offset="1" stop-color="#525252" stop-opacity="0"/>
</linearGradient>
<clipPath id="clip0_9_192">
<rect width="770" height="770" fill="white"/>
</clipPath>
</defs>
</svg>
