<svg width="780" height="780" viewBox="0 0 780 780" fill="none" xmlns="http://www.w3.org/2000/svg">
<path d="M775 390C775 602.63 602.63 775 390 775C177.37 775 5 602.63 5 390C5 177.37 177.37 5 390 5C602.63 5 775 177.37 775 390Z" fill="#595959"/>
<path d="M317.82 472.003C323.101 472.694 333.832 475.054 334.506 478.962C335.35 483.847 323.684 493.486 325.807 495.059C327.929 496.631 341.273 494.368 338.342 499.518C335.411 504.669 320.244 513.192 319.307 507.846C318.371 502.499 295.852 516.16 298.992 519.302C302.132 522.443 274.009 508.817 283.016 503.316C292.023 497.815 296.866 485.392 294.003 482.527C291.141 479.663 279.866 465.81 287.595 463.806C295.323 461.802 305.856 473.994 310.176 471.335C313.632 469.208 316.712 470.894 317.82 472.003Z" fill="#545454"/>
<path d="M273.062 512.529C277.985 514.564 287.74 519.622 287.38 523.572C286.931 528.509 273.17 534.799 274.813 536.868C276.456 538.936 289.932 540.205 285.768 544.421C281.604 548.637 264.749 552.942 265.227 547.536C265.706 542.129 240.421 549.493 242.641 553.34C244.861 557.188 221.221 536.743 231.344 533.762C241.468 530.781 249.359 520.035 247.335 516.527C245.311 513.019 238.004 496.719 245.987 496.784C253.971 496.85 260.991 511.354 265.851 509.905C269.74 508.745 272.279 511.171 273.062 512.529Z" fill="#545454"/>
<path d="M347.059 545.615C352.34 546.306 363.071 548.665 363.745 552.574C364.589 557.459 352.923 567.098 355.046 568.671C357.168 570.243 370.512 567.979 367.581 573.13C364.65 578.28 349.483 586.804 348.546 581.457C347.61 576.111 325.091 589.772 328.231 592.913C331.371 596.055 303.248 582.429 312.255 576.928C321.262 571.427 326.105 559.004 323.242 556.139C320.38 553.275 309.105 539.422 316.834 537.418C324.562 535.414 335.095 547.606 339.415 544.947C342.871 542.82 345.951 544.506 347.059 545.615Z" fill="#545454"/>
<path d="M353.923 523.535C358.151 526.776 366.265 534.188 364.896 537.91C363.185 542.562 348.266 545.074 349.318 547.498C350.37 549.921 363.058 554.637 357.946 557.631C352.833 560.625 335.439 560.418 337.299 555.32C339.16 550.221 312.832 550.786 313.981 555.078C315.131 559.369 297.584 533.499 308.134 533.241C318.683 532.983 329.086 524.647 328.038 520.734C326.99 516.821 324.148 499.184 331.843 501.315C339.537 503.446 342.566 519.274 347.636 519.133C351.692 519.019 353.517 522.02 353.923 523.535Z" fill="#545454"/>
<path d="M233.318 460.42C238.599 461.112 249.329 463.471 250.004 467.38C250.847 472.265 239.182 481.904 241.304 483.476C243.427 485.049 256.771 482.785 253.84 487.936C250.909 493.086 235.741 501.609 234.805 496.263C233.868 490.917 211.35 504.578 214.49 507.719C217.629 510.861 189.506 497.235 198.513 491.734C207.52 486.233 212.364 473.809 209.501 470.945C206.638 468.08 195.364 454.228 203.092 452.224C210.821 450.22 221.354 462.412 225.673 459.753C229.129 457.626 232.209 459.312 233.318 460.42Z" fill="#545454"/>
<path d="M188.56 500.947C193.482 502.982 203.237 508.04 202.878 511.99C202.428 516.927 188.667 523.217 190.311 525.285C191.954 527.354 205.429 528.623 201.265 532.839C197.102 537.055 180.247 541.36 180.725 535.953C181.203 530.547 155.919 537.91 158.139 541.758C160.359 545.606 136.718 525.161 146.842 522.18C156.965 519.199 164.857 508.453 162.832 504.945C160.808 501.437 153.501 485.136 161.485 485.202C169.468 485.268 176.488 499.772 181.349 498.322C185.237 497.163 187.776 499.589 188.56 500.947Z" fill="#545454"/>
<path d="M262.557 534.032C267.838 534.723 278.568 537.083 279.243 540.991C280.086 545.877 268.421 555.516 270.543 557.088C272.666 558.661 286.01 556.397 283.079 561.547C280.148 566.698 264.98 575.221 264.044 569.875C263.107 564.529 240.589 578.189 243.729 581.331C246.868 584.473 218.745 570.846 227.752 565.345C236.759 559.844 241.603 547.421 238.74 544.557C235.877 541.692 224.603 527.839 232.331 525.835C240.06 523.831 250.593 536.024 254.912 533.365C258.368 531.238 261.448 532.923 262.557 534.032Z" fill="#545454"/>
<path d="M269.42 511.953C273.648 515.193 281.762 522.605 280.393 526.327C278.682 530.98 263.763 533.492 264.815 535.915C265.868 538.339 278.556 543.054 273.443 546.048C268.331 549.043 250.936 548.836 252.797 543.737C254.657 538.639 228.33 539.203 229.479 543.495C230.628 547.787 213.082 521.916 223.631 521.658C234.181 521.4 244.583 513.065 243.535 509.152C242.487 505.239 239.646 487.602 247.34 489.733C255.035 491.864 258.064 507.692 263.134 507.55C267.189 507.437 269.015 510.438 269.42 511.953Z" fill="#545454"/>
<path d="M209.009 571.611C214.29 572.303 225.02 574.662 225.695 578.57C226.538 583.456 214.873 593.095 216.995 594.667C219.118 596.24 232.462 593.976 229.531 599.127C226.6 604.277 211.432 612.8 210.496 607.454C209.559 602.108 187.041 615.769 190.181 618.91C193.321 622.052 165.197 608.426 174.204 602.925C183.211 597.423 188.055 585 185.192 582.136C182.329 579.271 171.055 565.419 178.783 563.415C186.512 561.411 197.045 573.603 201.364 570.944C204.82 568.817 207.9 570.503 209.009 571.611Z" fill="#545454"/>
<path d="M164.251 612.138C169.173 614.173 178.928 619.231 178.569 623.181C178.119 628.118 164.358 634.408 166.002 636.476C167.645 638.545 181.12 639.814 176.957 644.03C172.793 648.246 155.938 652.551 156.416 647.144C156.894 641.738 131.61 649.101 133.83 652.949C136.05 656.797 112.41 636.352 122.533 633.371C132.656 630.39 140.548 619.644 138.524 616.136C136.499 612.627 129.192 596.327 137.176 596.393C145.159 596.458 152.179 610.963 157.04 609.513C160.928 608.353 163.467 610.78 164.251 612.138Z" fill="#545454"/>
<path d="M238.248 645.223C243.529 645.914 254.259 648.274 254.934 652.182C255.777 657.067 244.112 666.707 246.234 668.279C248.357 669.852 261.701 667.588 258.77 672.738C255.839 677.889 240.671 686.412 239.735 681.066C238.798 675.72 216.28 689.38 219.42 692.522C222.56 695.664 194.436 682.037 203.443 676.536C212.45 671.035 217.294 658.612 214.431 655.748C211.568 652.883 200.294 639.03 208.022 637.026C215.751 635.022 226.284 647.215 230.603 644.556C234.059 642.428 237.139 644.114 238.248 645.223Z" fill="#545454"/>
<path d="M245.111 623.143C249.339 626.384 257.453 633.796 256.085 637.518C254.373 642.171 239.454 644.683 240.507 647.106C241.559 649.53 254.247 654.245 249.134 657.239C244.022 660.233 226.628 660.027 228.488 654.928C230.349 649.83 204.021 650.394 205.17 654.686C206.319 658.978 188.773 633.107 199.322 632.849C209.872 632.591 220.274 624.256 219.226 620.343C218.178 616.43 215.337 598.793 223.031 600.924C230.726 603.054 233.755 618.883 238.825 618.741C242.88 618.628 244.706 621.629 245.111 623.143Z" fill="#545454"/>
<path d="M364.698 626.607C365.397 631.89 365.897 642.872 362.298 644.535C357.8 646.614 345.476 637.835 344.507 640.293C343.539 642.751 349.178 655.062 343.447 653.563C337.716 652.063 325.562 639.61 330.481 637.321C335.4 635.032 316.384 616.804 314.164 620.652C311.944 624.499 317.819 593.792 325.461 601.073C333.103 608.355 346.349 609.821 348.374 606.312C350.398 602.804 360.853 588.322 364.788 595.273C368.723 602.224 359.679 615.559 363.364 619.046C366.312 621.835 365.481 625.249 364.698 626.607Z" fill="#545454"/>
<path d="M313.991 593.838C313.3 599.122 310.942 609.859 307.036 610.534C302.153 611.378 292.52 599.706 290.948 601.829C289.377 603.953 291.639 617.305 286.491 614.372C281.344 611.439 272.826 596.263 278.169 595.326C283.512 594.389 269.859 571.858 266.719 574.999C263.579 578.141 277.198 550.001 282.696 559.014C288.194 568.026 300.61 572.872 303.472 570.008C306.335 567.143 320.18 555.863 322.183 563.595C324.186 571.328 312 581.867 314.658 586.189C316.784 589.647 315.099 592.729 313.991 593.838Z" fill="#545454"/>
<path d="M301.203 673.918C301.903 679.201 302.402 690.183 298.804 691.846C294.306 693.925 281.981 685.146 281.013 687.604C280.044 690.062 285.683 702.374 279.952 700.874C274.221 699.374 262.068 686.921 266.986 684.632C271.905 682.343 252.889 664.115 250.669 667.963C248.449 671.811 254.324 641.103 261.966 648.384C269.608 655.666 282.854 657.132 284.879 653.623C286.903 650.115 297.358 635.634 301.293 642.584C305.228 649.535 296.184 662.87 299.869 666.357C302.817 669.146 301.987 672.56 301.203 673.918Z" fill="#545454"/>
<path d="M324.294 674.837C322.26 679.762 317.205 689.522 313.258 689.163C308.323 688.713 302.037 674.944 299.97 676.589C297.902 678.233 296.634 691.716 292.421 687.55C288.207 683.384 283.905 666.519 289.308 666.997C294.712 667.476 287.352 642.177 283.507 644.398C279.661 646.62 300.094 622.965 303.074 633.094C306.053 643.224 316.792 651.12 320.299 649.095C323.805 647.069 340.096 639.758 340.03 647.746C339.964 655.734 325.468 662.758 326.917 667.622C328.076 671.512 325.652 674.053 324.294 674.837Z" fill="#545454"/>
<path d="M221.82 229.003C227.101 229.694 237.832 232.054 238.506 235.962C239.35 240.847 227.684 250.486 229.807 252.059C231.929 253.631 245.273 251.368 242.342 256.518C239.411 261.669 224.244 270.192 223.307 264.846C222.371 259.499 199.852 273.16 202.992 276.302C206.132 279.443 178.009 265.817 187.016 260.316C196.023 254.815 200.866 242.392 198.003 239.527C195.141 236.663 183.866 222.81 191.595 220.806C199.323 218.802 209.856 230.994 214.176 228.335C217.632 226.208 220.712 227.894 221.82 229.003Z" fill="#545454"/>
<path d="M177.062 269.529C181.985 271.564 191.74 276.622 191.38 280.572C190.931 285.509 177.17 291.799 178.813 293.868C180.456 295.936 193.932 297.205 189.768 301.421C185.604 305.637 168.749 309.942 169.227 304.536C169.706 299.129 144.421 306.493 146.641 310.34C148.861 314.188 125.221 293.743 135.344 290.762C145.468 287.781 153.359 277.035 151.335 273.527C149.311 270.019 142.004 253.719 149.987 253.784C157.971 253.85 164.991 268.354 169.851 266.905C173.74 265.745 176.279 268.171 177.062 269.529Z" fill="#545454"/>
<path d="M251.059 302.615C256.34 303.306 267.071 305.665 267.745 309.574C268.589 314.459 256.923 324.098 259.046 325.671C261.168 327.243 274.513 324.979 271.581 330.13C268.65 335.28 253.483 343.804 252.546 338.457C251.61 333.111 229.091 346.772 232.231 349.913C235.371 353.055 207.248 339.429 216.255 333.928C225.262 328.427 230.105 316.004 227.242 313.139C224.38 310.275 213.105 296.422 220.834 294.418C228.562 292.414 239.095 304.606 243.415 301.947C246.871 299.82 249.951 301.506 251.059 302.615Z" fill="#545454"/>
<path d="M257.923 280.535C262.151 283.776 270.265 291.187 268.896 294.91C267.185 299.562 252.266 302.074 253.318 304.498C254.37 306.921 267.058 311.637 261.946 314.631C256.833 317.625 239.439 317.418 241.299 312.32C243.16 307.221 216.832 307.786 217.981 312.078C219.131 316.369 201.584 290.499 212.134 290.241C222.683 289.983 233.086 281.647 232.038 277.734C230.99 273.821 228.148 256.184 235.843 258.315C243.537 260.446 246.566 276.274 251.636 276.133C255.692 276.019 257.517 279.02 257.923 280.535Z" fill="#545454"/>
<path d="M137.318 217.42C142.599 218.112 153.329 220.471 154.004 224.38C154.847 229.265 143.182 238.904 145.304 240.476C147.427 242.049 160.771 239.785 157.84 244.936C154.909 250.086 139.741 258.609 138.805 253.263C137.868 247.917 115.35 261.578 118.49 264.719C121.629 267.861 93.506 254.235 102.513 248.734C111.52 243.233 116.364 230.809 113.501 227.945C110.638 225.08 99.3639 211.228 107.092 209.224C114.821 207.22 125.354 219.412 129.673 216.753C133.129 214.626 136.209 216.312 137.318 217.42Z" fill="#545454"/>
<path d="M92.5599 257.947C97.4822 259.982 107.237 265.04 106.878 268.99C106.428 273.927 92.6672 280.217 94.3105 282.285C95.9539 284.354 109.429 285.623 105.265 289.839C101.102 294.055 84.2466 298.36 84.7249 292.953C85.2031 287.547 59.9185 294.91 62.1387 298.758C64.359 302.606 40.7185 282.161 50.8417 279.18C60.965 276.199 68.8568 265.453 66.8325 261.945C64.8082 258.437 57.5014 242.136 65.4849 242.202C73.4684 242.268 80.4884 256.772 85.3488 255.322C89.237 254.163 91.7763 256.589 92.5599 257.947Z" fill="#545454"/>
<path d="M166.557 291.032C171.838 291.723 182.568 294.083 183.243 297.991C184.086 302.877 172.421 312.516 174.543 314.088C176.666 315.661 190.01 313.397 187.079 318.547C184.148 323.698 168.98 332.221 168.044 326.875C167.107 321.529 144.589 335.189 147.729 338.331C150.868 341.473 122.745 327.846 131.752 322.345C140.759 316.844 145.603 304.421 142.74 301.557C139.877 298.692 128.603 284.839 136.331 282.835C144.06 280.831 154.593 293.024 158.912 290.365C162.368 288.238 165.448 289.923 166.557 291.032Z" fill="#545454"/>
<path d="M173.42 268.953C177.648 272.193 185.762 279.605 184.393 283.327C182.682 287.98 167.763 290.492 168.816 292.915C169.868 295.339 182.556 300.054 177.443 303.048C172.331 306.043 154.936 305.836 156.797 300.737C158.657 295.639 132.33 296.203 133.479 300.495C134.628 304.787 117.082 278.916 127.631 278.658C138.181 278.4 148.583 270.065 147.535 266.152C146.487 262.239 143.646 244.602 151.34 246.733C159.035 248.864 162.064 264.692 167.134 264.55C171.189 264.437 173.015 267.438 173.42 268.953Z" fill="#545454"/>
<path d="M113.009 328.611C118.29 329.303 129.02 331.662 129.695 335.57C130.538 340.456 118.873 350.095 120.995 351.667C123.118 353.24 136.462 350.976 133.531 356.127C130.6 361.277 115.432 369.8 114.496 364.454C113.559 359.108 91.0408 372.769 94.1807 375.91C97.3205 379.052 69.1971 365.426 78.2043 359.925C87.2115 354.423 92.0548 342 89.192 339.136C86.3292 336.271 75.055 322.419 82.7835 320.415C90.5119 318.411 101.045 330.603 105.364 327.944C108.82 325.817 111.9 327.503 113.009 328.611Z" fill="#545454"/>
<path d="M68.251 369.138C73.1733 371.173 82.9281 376.231 82.5686 380.181C82.1193 385.118 68.3583 391.408 70.0016 393.476C71.6449 395.545 85.1202 396.814 80.9565 401.03C76.7929 405.246 59.9376 409.551 60.4159 404.144C60.8942 398.738 35.6096 406.101 37.8298 409.949C40.05 413.797 16.4095 393.352 26.5328 390.371C36.656 387.39 44.5478 376.644 42.5235 373.136C40.4992 369.627 33.1924 353.327 41.1759 353.393C49.1595 353.459 56.1795 367.963 61.0398 366.513C64.9281 365.353 67.4674 367.78 68.251 369.138Z" fill="#545454"/>
<path d="M142.248 402.223C147.529 402.914 158.259 405.274 158.934 409.182C159.777 414.067 148.112 423.707 150.234 425.279C152.357 426.852 165.701 424.588 162.77 429.738C159.839 434.889 144.671 443.412 143.735 438.066C142.798 432.72 120.28 446.38 123.42 449.522C126.56 452.664 98.4361 439.037 107.443 433.536C116.45 428.035 121.294 415.612 118.431 412.748C115.568 409.883 104.294 396.03 112.022 394.026C119.751 392.022 130.284 404.215 134.603 401.556C138.059 399.428 141.139 401.114 142.248 402.223Z" fill="#545454"/>
<path d="M149.111 380.143C153.339 383.384 161.453 390.796 160.085 394.518C158.373 399.171 143.454 401.683 144.507 404.106C145.559 406.53 158.247 411.245 153.134 414.239C148.022 417.233 130.628 417.027 132.488 411.928C134.349 406.83 108.021 407.394 109.17 411.686C110.319 415.978 92.7728 390.107 103.322 389.849C113.872 389.591 124.274 381.256 123.226 377.343C122.178 373.43 119.337 355.793 127.031 357.924C134.726 360.054 137.755 375.883 142.825 375.741C146.88 375.628 148.706 378.629 149.111 380.143Z" fill="#545454"/>
<path d="M268.698 383.607C269.397 388.89 269.897 399.872 266.298 401.535C261.8 403.614 249.476 394.835 248.507 397.293C247.539 399.751 253.178 412.063 247.447 410.563C241.716 409.063 229.562 396.61 234.481 394.321C239.4 392.032 220.384 373.804 218.164 377.652C215.944 381.499 221.819 350.792 229.461 358.073C237.103 365.355 250.349 366.821 252.374 363.312C254.398 359.804 264.853 345.322 268.788 352.273C272.723 359.224 263.679 372.559 267.364 376.046C270.312 378.835 269.481 382.249 268.698 383.607Z" fill="#545454"/>
<path d="M217.991 350.838C217.3 356.122 214.942 366.859 211.036 367.534C206.153 368.378 196.52 356.706 194.948 358.829C193.377 360.953 195.639 374.305 190.491 371.372C185.344 368.439 176.826 353.263 182.169 352.326C187.512 351.389 173.859 328.858 170.719 331.999C167.579 335.141 181.198 307.001 186.696 316.014C192.194 325.026 204.61 329.872 207.472 327.008C210.335 324.143 224.18 312.863 226.183 320.595C228.186 328.328 216.001 338.867 218.658 343.189C220.784 346.647 219.099 349.729 217.991 350.838Z" fill="#545454"/>
<path d="M205.203 430.918C205.903 436.201 206.402 447.183 202.804 448.846C198.306 450.925 185.981 442.146 185.013 444.604C184.044 447.062 189.683 459.374 183.952 457.874C178.221 456.374 166.068 443.921 170.986 441.632C175.905 439.343 156.889 421.115 154.669 424.963C152.449 428.811 158.324 398.103 165.966 405.385C173.608 412.666 186.854 414.132 188.879 410.623C190.903 407.115 201.358 392.634 205.293 399.584C209.228 406.535 200.184 419.87 203.869 423.357C206.817 426.146 205.987 429.56 205.203 430.918Z" fill="#545454"/>
<path d="M228.294 431.837C226.26 436.762 221.205 446.522 217.258 446.163C212.323 445.713 206.037 431.944 203.97 433.589C201.902 435.233 200.634 448.716 196.42 444.55C192.207 440.384 187.905 423.519 193.308 423.997C198.712 424.476 191.352 399.177 187.507 401.398C183.661 403.62 204.094 379.965 207.074 390.095C210.053 400.224 220.792 408.12 224.299 406.095C227.805 404.069 244.096 396.758 244.03 404.746C243.964 412.734 229.468 419.758 230.917 424.622C232.076 428.512 229.652 431.053 228.294 431.837Z" fill="#545454"/>
<path d="M582.82 81.0028C588.101 81.6941 598.832 84.0536 599.506 87.9619C600.35 92.8472 588.684 102.486 590.807 104.059C592.929 105.631 606.274 103.368 603.342 108.518C600.411 113.669 585.244 122.192 584.307 116.846C583.371 111.499 560.852 125.16 563.992 128.302C567.132 131.443 539.009 117.817 548.016 112.316C557.023 106.815 561.866 94.3918 559.003 91.5273C556.141 88.6628 544.866 74.8101 552.595 72.8061C560.323 70.8021 570.856 82.9943 575.176 80.3353C578.632 78.2081 581.712 79.894 582.82 81.0028Z" fill="#545454"/>
<path d="M538.062 121.529C542.985 123.564 552.74 128.622 552.38 132.572C551.931 137.509 538.17 143.799 539.813 145.868C541.456 147.936 554.932 149.205 550.768 153.421C546.604 157.637 529.749 161.942 530.227 156.536C530.706 151.129 505.421 158.493 507.641 162.34C509.861 166.188 486.221 145.743 496.344 142.762C506.468 139.781 514.359 129.035 512.335 125.527C510.311 122.019 503.004 105.719 510.987 105.784C518.971 105.85 525.991 120.354 530.851 118.905C534.74 117.745 537.279 120.171 538.062 121.529Z" fill="#545454"/>
<path d="M612.059 154.615C617.34 155.306 628.071 157.665 628.745 161.574C629.589 166.459 617.923 176.098 620.046 177.671C622.168 179.243 635.513 176.979 632.581 182.13C629.65 187.28 614.483 195.804 613.546 190.457C612.61 185.111 590.091 198.772 593.231 201.913C596.371 205.055 568.248 191.429 577.255 185.928C586.262 180.427 591.105 168.003 588.242 165.139C585.38 162.275 574.105 148.422 581.834 146.418C589.562 144.414 600.095 156.606 604.415 153.947C607.871 151.82 610.951 153.506 612.059 154.615Z" fill="#545454"/>
<path d="M618.923 132.535C623.151 135.776 631.265 143.188 629.896 146.91C628.185 151.562 613.266 154.074 614.318 156.498C615.37 158.921 628.058 163.637 622.946 166.631C617.833 169.625 600.439 169.418 602.299 164.32C604.16 159.221 577.832 159.786 578.982 164.077C580.131 168.369 562.584 142.499 573.134 142.241C583.683 141.983 594.086 133.647 593.038 129.734C591.99 125.821 589.148 108.184 596.843 110.315C604.537 112.446 607.566 128.274 612.636 128.132C616.692 128.019 618.517 131.02 618.923 132.535Z" fill="#545454"/>
<path d="M498.318 69.4204C503.599 70.1117 514.329 72.4712 515.004 76.3795C515.847 81.2648 504.182 90.9039 506.304 92.4764C508.427 94.0489 521.771 91.7851 518.84 96.9357C515.909 102.086 500.741 110.609 499.805 105.263C498.868 99.9169 476.35 113.578 479.49 116.719C482.629 119.861 454.506 106.235 463.513 100.734C472.52 95.2325 477.364 82.8094 474.501 79.9449C471.638 77.0804 460.364 63.2277 468.092 61.2237C475.821 59.2197 486.354 71.4119 490.673 68.7529C494.129 66.6258 497.209 68.3116 498.318 69.4204Z" fill="#545454"/>
<path d="M453.56 109.947C458.482 111.982 468.237 117.04 467.878 120.99C467.428 125.927 453.667 132.217 455.311 134.285C456.954 136.354 470.429 137.623 466.265 141.839C462.102 146.055 445.247 150.36 445.725 144.953C446.203 139.547 420.919 146.91 423.139 150.758C425.359 154.606 401.718 134.161 411.842 131.18C421.965 128.199 429.857 117.453 427.832 113.945C425.808 110.437 418.501 94.1361 426.485 94.2019C434.468 94.2676 441.488 108.772 446.349 107.322C450.237 106.163 452.776 108.589 453.56 109.947Z" fill="#545454"/>
<path d="M527.557 143.032C532.838 143.723 543.568 146.083 544.243 149.991C545.086 154.877 533.421 164.516 535.543 166.088C537.666 167.661 551.01 165.397 548.079 170.547C545.148 175.698 529.98 184.221 529.044 178.875C528.107 173.529 505.589 187.189 508.729 190.331C511.868 193.473 483.745 179.846 492.752 174.345C501.759 168.844 506.603 156.421 503.74 153.557C500.877 150.692 489.603 136.839 497.331 134.835C505.06 132.831 515.593 145.024 519.912 142.365C523.368 140.237 526.448 141.923 527.557 143.032Z" fill="#545454"/>
<path d="M534.42 120.953C538.648 124.193 546.762 131.605 545.393 135.327C543.682 139.98 528.763 142.492 529.815 144.915C530.868 147.339 543.556 152.054 538.443 155.048C533.331 158.043 515.936 157.836 517.797 152.737C519.658 147.639 493.33 148.203 494.479 152.495C495.628 156.787 478.082 130.916 488.631 130.658C499.181 130.4 509.583 122.065 508.535 118.152C507.487 114.239 504.646 96.6016 512.34 98.7326C520.035 100.864 523.064 116.692 528.134 116.55C532.189 116.437 534.015 119.438 534.42 120.953Z" fill="#545454"/>
<path d="M474.009 180.611C479.29 181.303 490.02 183.662 490.695 187.57C491.538 192.456 479.873 202.095 481.995 203.667C484.118 205.24 497.462 202.976 494.531 208.127C491.6 213.277 476.432 221.8 475.496 216.454C474.559 211.108 452.041 224.769 455.181 227.91C458.321 231.052 430.197 217.426 439.204 211.925C448.211 206.423 453.055 194 450.192 191.136C447.329 188.271 436.055 174.419 443.783 172.415C451.512 170.411 462.045 182.603 466.364 179.944C469.82 177.817 472.9 179.503 474.009 180.611Z" fill="#545454"/>
<path d="M429.251 221.138C434.173 223.173 443.928 228.231 443.569 232.181C443.119 237.118 429.358 243.408 431.002 245.476C432.645 247.545 446.12 248.814 441.957 253.03C437.793 257.246 420.938 261.551 421.416 256.144C421.894 250.738 396.61 258.101 398.83 261.949C401.05 265.797 377.41 245.352 387.533 242.371C397.656 239.39 405.548 228.644 403.524 225.136C401.499 221.627 394.192 205.327 402.176 205.393C410.159 205.459 417.179 219.963 422.04 218.513C425.928 217.353 428.467 219.78 429.251 221.138Z" fill="#545454"/>
<path d="M503.248 254.223C508.529 254.914 519.259 257.274 519.934 261.182C520.777 266.067 509.112 275.707 511.234 277.279C513.357 278.852 526.701 276.588 523.77 281.738C520.839 286.889 505.671 295.412 504.735 290.066C503.798 284.72 481.28 298.38 484.42 301.522C487.56 304.664 459.436 291.037 468.443 285.536C477.451 280.035 482.294 267.612 479.431 264.748C476.568 261.883 465.294 248.03 473.022 246.026C480.751 244.022 491.284 256.215 495.603 253.556C499.059 251.428 502.139 253.114 503.248 254.223Z" fill="#545454"/>
<path d="M510.111 232.143C514.339 235.384 522.453 242.796 521.084 246.518C519.373 251.171 504.454 253.683 505.507 256.106C506.559 258.53 519.247 263.245 514.134 266.239C509.022 269.233 491.628 269.027 493.488 263.928C495.349 258.83 469.021 259.394 470.17 263.686C471.319 267.978 453.773 242.107 464.322 241.849C474.872 241.591 485.274 233.256 484.226 229.343C483.178 225.43 480.337 207.793 488.031 209.924C495.726 212.054 498.755 227.883 503.825 227.741C507.88 227.628 509.706 230.629 510.111 232.143Z" fill="#545454"/>
<path d="M629.698 235.607C630.397 240.89 630.897 251.872 627.298 253.535C622.8 255.614 610.476 246.835 609.507 249.293C608.539 251.751 614.178 264.062 608.447 262.563C602.716 261.063 590.562 248.61 595.481 246.321C600.4 244.032 581.384 225.804 579.164 229.652C576.944 233.499 582.819 202.792 590.461 210.073C598.103 217.355 611.349 218.821 613.374 215.312C615.398 211.804 625.853 197.322 629.788 204.273C633.723 211.224 624.679 224.559 628.364 228.046C631.312 230.835 630.481 234.249 629.698 235.607Z" fill="#545454"/>
<path d="M578.991 202.838C578.3 208.122 575.942 218.859 572.036 219.534C567.153 220.378 557.52 208.706 555.948 210.829C554.377 212.953 556.639 226.305 551.491 223.372C546.344 220.439 537.826 205.263 543.169 204.326C548.512 203.389 534.859 180.858 531.719 183.999C528.579 187.141 542.198 159.001 547.696 168.014C553.194 177.026 565.61 181.872 568.472 179.008C571.335 176.143 585.18 164.862 587.183 172.595C589.186 180.328 577.001 190.867 579.658 195.189C581.784 198.647 580.099 201.729 578.991 202.838Z" fill="#545454"/>
<path d="M566.203 282.918C566.902 288.201 567.402 299.183 563.804 300.846C559.306 302.925 546.981 294.146 546.013 296.604C545.044 299.062 550.683 311.374 544.952 309.874C539.221 308.374 527.068 295.921 531.986 293.632C536.905 291.343 517.889 273.115 515.669 276.963C513.449 280.811 519.324 250.103 526.966 257.384C534.608 264.666 547.854 266.132 549.879 262.623C551.903 259.115 562.358 244.633 566.293 251.584C570.228 258.535 561.184 271.87 564.869 275.357C567.817 278.146 566.987 281.56 566.203 282.918Z" fill="#545454"/>
<path d="M589.294 283.837C587.26 288.762 582.205 298.522 578.258 298.163C573.323 297.713 567.037 283.944 564.97 285.589C562.902 287.233 561.634 300.716 557.42 296.55C553.207 292.384 548.905 275.519 554.308 275.997C559.712 276.476 552.352 251.177 548.507 253.398C544.661 255.62 565.094 231.965 568.074 242.095C571.053 252.224 581.792 260.12 585.299 258.095C588.805 256.069 605.096 248.758 605.03 256.746C604.964 264.734 590.468 271.758 591.917 276.622C593.076 280.512 590.652 283.053 589.294 283.837Z" fill="#545454"/>
<path d="M646.384 339.116C653.816 340.088 668.917 343.405 669.866 348.898C671.052 355.765 654.636 369.314 657.623 371.524C660.61 373.735 679.389 370.553 675.264 377.792C671.139 385.032 649.794 397.013 648.477 389.498C647.159 381.983 615.47 401.185 619.888 405.601C624.307 410.017 584.73 390.863 597.405 383.131C610.081 375.398 616.897 357.936 612.868 353.91C608.839 349.883 592.973 330.412 603.849 327.595C614.725 324.778 629.548 341.916 635.626 338.178C640.49 335.188 644.824 337.558 646.384 339.116Z" fill="#545454"/>
<path d="M583.398 396.081C590.325 398.942 604.053 406.052 603.547 411.604C602.915 418.543 583.549 427.384 585.862 430.292C588.175 433.2 607.138 434.984 601.278 440.91C595.419 446.836 571.699 452.887 572.372 445.287C573.045 437.687 537.463 448.038 540.588 453.446C543.712 458.855 510.444 430.117 524.69 425.927C538.936 421.736 550.042 406.632 547.193 401.701C544.344 396.77 534.062 373.857 545.297 373.95C556.532 374.042 566.411 394.43 573.25 392.392C578.722 390.762 582.296 394.172 583.398 396.081Z" fill="#545454"/>
<path d="M687.531 442.587C694.963 443.558 710.064 446.875 711.013 452.369C712.199 459.235 695.783 472.784 698.77 474.995C701.757 477.205 720.536 474.023 716.411 481.263C712.286 488.503 690.941 500.483 689.623 492.968C688.305 485.453 656.616 504.655 661.035 509.071C665.454 513.487 625.877 494.334 638.552 486.601C651.228 478.869 658.043 461.407 654.015 457.38C649.986 453.354 634.12 433.882 644.996 431.065C655.872 428.248 670.694 445.386 676.773 441.648C681.636 438.658 685.971 441.028 687.531 442.587Z" fill="#545454"/>
<path d="M697.19 411.551C703.14 416.106 714.558 426.525 712.632 431.757C710.224 438.296 689.229 441.827 690.71 445.234C692.19 448.64 710.045 455.269 702.851 459.477C695.657 463.686 671.178 463.395 673.796 456.228C676.415 449.062 639.365 449.856 640.982 455.888C642.599 461.92 617.907 425.556 632.753 425.194C647.598 424.831 662.237 413.114 660.763 407.614C659.288 402.114 655.29 377.323 666.118 380.318C676.946 383.314 681.208 405.562 688.343 405.363C694.05 405.204 696.619 409.422 697.19 411.551Z" fill="#545454"/>
<path d="M527.467 322.836C534.899 323.808 550 327.124 550.949 332.618C552.136 339.485 535.72 353.034 538.706 355.244C541.693 357.454 560.472 354.272 556.347 361.512C552.222 368.752 530.878 380.732 529.56 373.217C528.242 365.703 496.553 384.904 500.971 389.32C505.39 393.736 465.813 374.583 478.488 366.851C491.164 359.118 497.98 341.656 493.951 337.629C489.922 333.603 474.056 314.131 484.932 311.314C495.808 308.498 510.631 325.635 516.71 321.898C521.573 318.908 525.908 321.277 527.467 322.836Z" fill="#545454"/>
<path d="M464.481 379.801C471.408 382.661 485.136 389.771 484.63 395.323C483.998 402.263 464.633 411.104 466.945 414.012C469.258 416.919 488.221 418.703 482.361 424.629C476.502 430.555 452.782 436.606 453.456 429.007C454.129 421.407 418.547 431.757 421.671 437.166C424.795 442.574 391.527 413.836 405.773 409.646C420.019 405.456 431.125 390.352 428.276 385.42C425.428 380.489 415.145 357.577 426.38 357.669C437.615 357.762 447.494 378.149 454.334 376.112C459.805 374.482 463.379 377.892 464.481 379.801Z" fill="#545454"/>
<path d="M568.614 426.306C576.046 427.278 591.147 430.595 592.096 436.088C593.282 442.955 576.866 456.504 579.853 458.714C582.84 460.925 601.619 457.743 597.494 464.982C593.369 472.222 572.025 484.202 570.707 476.688C569.389 469.173 537.699 488.375 542.118 492.791C546.537 497.207 506.96 478.053 519.635 470.321C532.311 462.588 539.127 445.126 535.098 441.1C531.069 437.073 515.203 417.602 526.079 414.785C536.955 411.968 551.777 429.105 557.856 425.368C562.72 422.378 567.054 424.748 568.614 426.306Z" fill="#545454"/>
<path d="M578.273 395.271C584.223 399.826 595.641 410.244 593.715 415.476C591.307 422.016 570.312 425.546 571.793 428.953C573.274 432.36 591.129 438.988 583.934 443.197C576.74 447.405 552.261 447.115 554.88 439.948C557.498 432.781 520.448 433.575 522.065 439.608C523.682 445.64 498.99 409.276 513.836 408.913C528.682 408.551 543.321 396.834 541.846 391.334C540.371 385.834 536.373 361.042 547.201 364.038C558.029 367.033 562.292 389.282 569.426 389.083C575.133 388.923 577.702 393.142 578.273 395.271Z" fill="#545454"/>
<path d="M493.258 479.128C500.69 480.1 515.791 483.417 516.74 488.91C517.927 495.777 501.511 509.326 504.497 511.536C507.484 513.747 526.263 510.565 522.138 517.805C518.013 525.044 496.669 537.025 495.351 529.51C494.033 521.995 462.344 541.197 466.762 545.613C471.181 550.029 431.604 530.875 444.279 523.143C456.955 515.41 463.771 497.948 459.742 493.922C455.713 489.895 439.848 470.424 450.723 467.607C461.599 464.79 476.422 481.928 482.501 478.19C487.364 475.2 491.699 477.57 493.258 479.128Z" fill="#545454"/>
<path d="M430.273 536.093C437.2 538.954 450.927 546.064 450.421 551.616C449.789 558.555 430.424 567.396 432.736 570.304C435.049 573.212 454.012 574.995 448.153 580.922C442.293 586.848 418.574 592.899 419.247 585.299C419.92 577.699 384.338 588.05 387.462 593.458C390.587 598.867 357.318 570.129 371.564 565.939C385.81 561.748 396.916 546.644 394.067 541.713C391.219 536.782 380.936 513.869 392.171 513.962C403.406 514.054 413.285 534.442 420.125 532.404C425.596 530.774 429.17 534.184 430.273 536.093Z" fill="#545454"/>
<path d="M534.405 582.599C541.837 583.57 556.938 586.887 557.887 592.38C559.073 599.247 542.657 612.796 545.644 615.007C548.631 617.217 567.41 614.035 563.285 621.275C559.16 628.514 537.816 640.495 536.498 632.98C535.18 625.465 503.491 644.667 507.909 649.083C512.328 653.499 472.751 634.346 485.426 626.613C498.102 618.881 504.918 601.418 500.889 597.392C496.86 593.366 480.994 573.894 491.87 571.077C502.746 568.26 517.568 585.398 523.647 581.66C528.511 578.67 532.845 581.04 534.405 582.599Z" fill="#545454"/>
<path d="M544.064 551.563C550.014 556.118 561.432 566.537 559.506 571.768C557.098 578.308 536.103 581.839 537.584 585.246C539.065 588.652 556.92 595.281 549.725 599.489C542.531 603.698 518.052 603.407 520.671 596.24C523.289 589.074 486.239 589.868 487.856 595.9C489.473 601.932 464.781 565.568 479.627 565.206C494.473 564.843 509.112 553.126 507.637 547.626C506.162 542.126 502.164 517.335 512.992 520.33C523.82 523.326 528.083 545.574 535.217 545.375C540.924 545.216 543.493 549.434 544.064 551.563Z" fill="#545454"/>
<path d="M712.353 556.431C713.337 563.857 714.04 579.293 708.976 581.631C702.647 584.554 685.303 572.214 683.94 575.669C682.576 579.124 690.512 596.429 682.447 594.321C674.383 592.213 657.279 574.708 664.201 571.491C671.123 568.274 644.363 542.652 641.239 548.061C638.114 553.469 646.382 510.306 657.137 520.541C667.891 530.776 686.532 532.836 689.38 527.905C692.229 522.974 706.942 502.618 712.479 512.388C718.017 522.158 705.29 540.902 710.475 545.803C714.624 549.724 713.456 554.522 712.353 556.431Z" fill="#545454"/>
<path d="M640.995 510.371C640.023 517.798 636.704 532.89 631.208 533.839C624.337 535.025 610.78 518.619 608.568 521.604C606.357 524.589 609.541 543.357 602.297 539.234C595.053 535.111 583.065 513.779 590.584 512.462C598.104 511.145 578.891 479.474 574.472 483.891C570.053 488.307 589.218 448.753 596.955 461.421C604.692 474.089 622.164 480.901 626.193 476.874C630.222 472.848 649.705 456.991 652.523 467.861C655.342 478.731 638.194 493.544 641.934 499.62C644.926 504.48 642.555 508.812 640.995 510.371Z" fill="#545454"/>
<path d="M622.999 622.933C623.984 630.359 624.687 645.795 619.623 648.133C613.293 651.056 595.95 638.715 594.586 642.171C593.223 645.626 601.159 662.931 593.094 660.823C585.029 658.714 567.926 641.21 574.848 637.993C581.77 634.775 555.01 609.154 551.885 614.562C548.761 619.971 557.029 576.807 567.783 587.042C578.537 597.278 597.178 599.338 600.027 594.406C602.876 589.475 617.589 569.119 623.126 578.89C628.663 588.66 615.936 607.404 621.122 612.305C625.27 616.226 624.102 621.024 622.999 622.933Z" fill="#545454"/>
<path d="M655.495 624.224C652.632 631.147 645.518 644.867 639.963 644.361C633.019 643.729 624.173 624.375 621.264 626.687C618.355 628.998 616.57 647.95 610.64 642.094C604.711 636.238 598.656 612.532 606.26 613.205C613.864 613.878 603.508 578.316 598.096 581.439C592.684 584.562 621.439 551.313 625.632 565.551C629.825 579.788 644.938 590.888 649.872 588.04C654.806 585.193 677.732 574.917 677.639 586.145C677.547 597.373 657.147 607.247 659.186 614.082C660.817 619.551 657.405 623.122 655.495 624.224Z" fill="#545454"/>
<path d="M337 566.5C337 615.377 297.377 655 248.5 655C199.623 655 160 615.377 160 566.5C160 517.623 199.623 478 248.5 478C297.377 478 337 517.623 337 566.5Z" fill="#262626"/>
<path d="M298 586.5C298 603.345 284.345 617 267.5 617C250.655 617 237 603.345 237 586.5C237 569.655 250.655 556 267.5 556C284.345 556 298 569.655 298 586.5Z" fill="#4E4E4E"/>
<path d="M433.155 22.1043C439.242 22.9006 451.611 25.6187 452.388 30.1208C453.36 35.7484 439.914 46.8522 442.361 48.6636C444.807 50.475 460.188 47.8672 456.809 53.8004C453.431 59.7336 435.949 69.5518 434.869 63.3932C433.79 57.2346 407.835 72.971 411.454 76.59C415.073 80.2091 382.658 64.5124 393.039 58.1754C403.421 51.8384 409.004 37.5277 405.704 34.228C402.404 30.9282 389.409 14.9706 398.317 12.6621C407.225 10.3536 419.365 24.3984 424.344 21.3354C428.328 18.885 431.878 20.827 433.155 22.1043Z" fill="#545454"/>
<path d="M381.567 68.7884C387.241 71.1329 398.484 76.9596 398.07 81.5095C397.552 87.1969 381.691 94.4423 383.585 96.8252C385.479 99.208 401.011 100.67 396.212 105.527C391.413 110.383 371.985 115.342 372.536 109.114C373.088 102.886 343.944 111.368 346.503 115.801C349.062 120.233 321.814 96.6817 333.482 93.2476C345.15 89.8135 354.247 77.4353 351.913 73.394C349.58 69.3526 341.158 50.5755 350.36 50.6512C359.562 50.7269 367.653 67.4352 373.255 65.7652C377.737 64.4293 380.664 67.224 381.567 68.7884Z" fill="#545454"/>
<path d="M466.856 106.901C472.943 107.697 485.312 110.415 486.089 114.917C487.061 120.545 473.616 131.649 476.062 133.46C478.508 135.272 493.889 132.664 490.511 138.597C487.132 144.53 469.65 154.348 468.57 148.19C467.491 142.031 441.536 157.768 445.155 161.387C448.774 165.006 416.359 149.309 426.741 142.972C437.122 136.635 442.705 122.324 439.405 119.025C436.105 115.725 423.111 99.7673 432.019 97.4588C440.927 95.1503 453.067 109.195 458.046 106.132C462.029 103.682 465.579 105.624 466.856 106.901Z" fill="#545454"/>
<path d="M474.768 81.4665C479.641 85.1996 488.993 93.7377 487.415 98.0253C485.443 103.385 468.247 106.278 469.46 109.07C470.673 111.862 485.297 117.294 479.405 120.743C473.512 124.192 453.463 123.954 455.607 118.081C457.752 112.207 427.406 112.858 428.731 117.802C430.055 122.745 409.831 92.9441 421.991 92.647C434.15 92.3499 446.14 82.7477 444.932 78.2402C443.724 73.7327 440.449 53.4156 449.318 55.8703C458.187 58.3251 461.678 76.5583 467.522 76.3951C472.196 76.2646 474.3 79.7216 474.768 81.4665Z" fill="#545454"/>
<path d="M643 478.5C643 527.377 603.377 567 554.5 567C505.623 567 466 527.377 466 478.5C466 429.623 505.623 390 554.5 390C603.377 390 643 429.623 643 478.5Z" fill="#262626"/>
<path d="M604 484.5C604 509.077 584.077 529 559.5 529C534.923 529 515 509.077 515 484.5C515 459.923 534.923 440 559.5 440C584.077 440 604 459.923 604 484.5Z" fill="#4E4E4E"/>
<path d="M235.505 189.247C209.632 182.315 194.277 155.72 201.21 129.847C208.143 103.974 234.737 88.62 260.61 95.5527C286.483 102.485 301.837 129.08 294.905 154.953C287.972 180.826 261.378 196.18 235.505 189.247Z" fill="#262626"/>
<path d="M268 139.5C268 150.27 259.27 159 248.5 159C237.73 159 229 150.27 229 139.5C229 128.73 237.73 120 248.5 120C259.27 120 268 128.73 268 139.5Z" fill="#4E4E4E"/>
<path d="M372.847 353.248C346.974 346.315 331.62 319.721 338.553 293.847C345.485 267.974 372.08 252.62 397.953 259.553C423.826 266.485 439.18 293.08 432.248 318.953C425.315 344.826 398.721 360.18 372.847 353.248Z" fill="#262626"/>
<path d="M420 313.5C420 324.27 411.27 333 400.5 333C389.73 333 381 324.27 381 313.5C381 302.73 389.73 294 400.5 294C411.27 294 420 302.73 420 313.5Z" fill="#4E4E4E"/>
<path d="M59.736 339.368C45.5224 335.56 37.0874 320.95 40.8959 306.736C44.7044 292.522 59.3143 284.087 73.5279 287.896C87.7415 291.704 96.1765 306.314 92.368 320.528C88.5594 334.742 73.9496 343.177 59.736 339.368Z" fill="#262626"/>
<path d="M672.736 335.368C658.522 331.56 650.087 316.95 653.896 302.736C657.704 288.522 672.314 280.087 686.528 283.896C700.741 287.704 709.176 302.314 705.368 316.528C701.559 330.742 686.95 339.177 672.736 335.368Z" fill="#262626"/>
<path d="M692 310C692 316.627 686.627 322 680 322C673.373 322 668 316.627 668 310C668 303.373 673.373 298 680 298C686.627 298 692 303.373 692 310Z" fill="#4E4E4E"/>
<path d="M104.119 495.95C98.5306 494.452 95.214 488.708 96.7115 483.119C98.209 477.531 103.953 474.214 109.542 475.711C115.131 477.209 118.447 482.953 116.95 488.542C115.452 494.131 109.708 497.447 104.119 495.95Z" fill="#262626"/>
<path d="M407.505 140.248C381.632 133.315 366.277 106.721 373.21 80.8474C380.143 54.9743 406.737 39.62 432.61 46.5527C458.483 53.4854 473.837 80.0797 466.905 105.953C459.972 131.826 433.378 147.18 407.505 140.248Z" fill="#262626"/>
<path d="M265 390.5C265 415.077 245.077 435 220.5 435C195.923 435 176 415.077 176 390.5C176 365.923 195.923 346 220.5 346C245.077 346 265 365.923 265 390.5Z" fill="#262626"/>
<path d="M229 391.5C229 403.926 218.926 414 206.5 414C194.074 414 184 403.926 184 391.5C184 379.074 194.074 369 206.5 369C218.926 369 229 379.074 229 391.5Z" fill="#4E4E4E"/>
<path d="M571 227.5C571 252.077 551.077 272 526.5 272C501.923 272 482 252.077 482 227.5C482 202.923 501.923 183 526.5 183C551.077 183 571 202.923 571 227.5Z" fill="#262626"/>
<mask id="mask0_9_51" style="mask-type:alpha" maskUnits="userSpaceOnUse" x="5" y="5" width="770" height="770">
<circle cx="390" cy="390" r="385" fill="#595959"/>
</mask>
<g mask="url(#mask0_9_51)">
<path d="M722.472 143.555C311.387 243.281 161.029 389.614 -50.0994 715L-282 143.555L464.087 -96L862 -7.53902L722.472 143.555Z" fill="url(#paint0_linear_9_51)"/>
</g>
<defs>
<linearGradient id="paint0_linear_9_51" x1="290" y1="-96" x2="290" y2="715" gradientUnits="userSpaceOnUse">
<stop stop-color="#D0D0D0"/>
<stop offset="1" stop-color="#797979" stop-opacity="0"/>
</linearGradient>
</defs>
</svg>
