<svg width="770" height="770" viewBox="0 0 770 770" fill="none" xmlns="http://www.w3.org/2000/svg">
<g clip-path="url(#clip0_9_217)">
<circle cx="385" cy="385" r="385" fill="#EBEBEB"/>
<g filter="url(#filter0_i_9_217)">
<path d="M332 311C332 383.349 273.349 442 201 442C128.651 442 70 383.349 70 311C70 238.651 128.651 180 201 180C273.349 180 332 238.651 332 311Z" fill="#D9D9D9"/>
<path d="M277 283C277 328.287 240.287 365 195 365C149.713 365 113 328.287 113 283C113 237.713 149.713 201 195 201C240.287 201 277 237.713 277 283Z" fill="#727272"/>
<path d="M572 603.5C572 659.005 527.005 704 471.5 704C415.995 704 371 659.005 371 603.5C371 547.995 415.995 503 471.5 503C527.005 503 572 547.995 572 603.5Z" fill="#D9D9D9"/>
<path d="M523 594C523 627.137 496.137 654 463 654C429.863 654 403 627.137 403 594C403 560.863 429.863 534 463 534C496.137 534 523 560.863 523 594Z" fill="#AEAEAE"/>
<path d="M594 384.5C594 442.214 547.214 489 489.5 489C431.786 489 385 442.214 385 384.5C385 326.786 431.786 280 489.5 280C547.214 280 594 326.786 594 384.5Z" fill="#D9D9D9"/>
<path d="M543 385C543 419.794 514.794 448 480 448C445.206 448 417 419.794 417 385C417 350.206 445.206 322 480 322C514.794 322 543 350.206 543 385Z" fill="#9E9E9E"/>
<path d="M317 607C317 660.572 273.572 704 220 704C166.428 704 123 660.572 123 607C123 553.428 166.428 510 220 510C273.572 510 317 553.428 317 607Z" fill="#D9D9D9"/>
<path d="M274 590.5C274 621.704 248.704 647 217.5 647C186.296 647 161 621.704 161 590.5C161 559.296 186.296 534 217.5 534C248.704 534 274 559.296 274 590.5Z" fill="#989898"/>
<path d="M370 465C370 485.987 352.987 503 332 503C311.013 503 294 485.987 294 465C294 444.013 311.013 427 332 427C352.987 427 370 444.013 370 465Z" fill="#D9D9D9"/>
<path d="M356 465C356 478.255 345.255 489 332 489C318.745 489 308 478.255 308 465C308 451.745 318.745 441 332 441C345.255 441 356 451.745 356 465Z" fill="#CECECE"/>
<path d="M277 128C277 148.987 259.987 166 239 166C218.013 166 201 148.987 201 128C201 107.013 218.013 90 239 90C259.987 90 277 107.013 277 128Z" fill="#D9D9D9"/>
<path d="M258 127C258 137.493 249.493 146 239 146C228.507 146 220 137.493 220 127C220 116.507 228.507 108 239 108C249.493 108 258 116.507 258 127Z" fill="#878787"/>
<path d="M710 502.5C710 530.39 687.39 553 659.5 553C631.61 553 609 530.39 609 502.5C609 474.61 631.61 452 659.5 452C687.39 452 710 474.61 710 502.5Z" fill="#D9D9D9"/>
<path d="M692 499.5C692 518.554 676.554 534 657.5 534C638.446 534 623 518.554 623 499.5C623 480.446 638.446 465 657.5 465C676.554 465 692 480.446 692 499.5Z" fill="#B8B8B8"/>
<path d="M716 224.5C716 267.854 680.854 303 637.5 303C594.146 303 559 267.854 559 224.5C559 181.146 594.146 146 637.5 146C680.854 146 716 181.146 716 224.5Z" fill="#D9D9D9"/>
<path d="M696 224.5C696 256.809 669.809 283 637.5 283C605.191 283 579 256.809 579 224.5C579 192.191 605.191 166 637.5 166C669.809 166 696 192.191 696 224.5Z" fill="#8C8C8C"/>
<path d="M501 128.5C501 175.168 463.168 213 416.5 213C369.832 213 332 175.168 332 128.5C332 81.8319 369.832 44 416.5 44C463.168 44 501 81.8319 501 128.5Z" fill="#D9D9D9"/>
<path d="M468 128C468 156.167 445.167 179 417 179C388.833 179 366 156.167 366 128C366 99.8335 388.833 77 417 77C445.167 77 468 99.8335 468 128Z" fill="#A5A5A5"/>
</g>
</g>
<defs>
<filter id="filter0_i_9_217" x="70" y="44" width="646" height="664" filterUnits="userSpaceOnUse" color-interpolation-filters="sRGB">
<feFlood flood-opacity="0" result="BackgroundImageFix"/>
<feBlend mode="normal" in="SourceGraphic" in2="BackgroundImageFix" result="shape"/>
<feColorMatrix in="SourceAlpha" type="matrix" values="0 0 0 0 0 0 0 0 0 0 0 0 0 0 0 0 0 0 127 0" result="hardAlpha"/>
<feOffset dy="4"/>
<feGaussianBlur stdDeviation="2"/>
<feComposite in2="hardAlpha" operator="arithmetic" k2="-1" k3="1"/>
<feColorMatrix type="matrix" values="0 0 0 0 0 0 0 0 0 0 0 0 0 0 0 0 0 0 0.25 0"/>
<feBlend mode="normal" in2="shape" result="effect1_innerShadow_9_217"/>
</filter>
<clipPath id="clip0_9_217">
<rect width="770" height="770" fill="white"/>
</clipPath>
</defs>
</svg>
