<svg width="770" height="770" viewBox="0 0 770 770" fill="none" xmlns="http://www.w3.org/2000/svg">
<g clip-path="url(#clip0_9_282)">
<circle cx="385" cy="385" r="385" fill="#0067C7"/>
<mask id="mask0_9_282" style="mask-type:alpha" maskUnits="userSpaceOnUse" x="0" y="0" width="770" height="770">
<circle cx="385" cy="385" r="385" fill="#0067C7"/>
</mask>
<g mask="url(#mask0_9_282)">
<path d="M288.715 295.201C333.039 339.526 333.039 411.39 288.715 455.715C244.39 500.039 172.526 500.039 128.201 455.715C83.8768 411.39 84.9163 295.201 151.416 339.916C209.753 398.252 279.997 348.79 288.715 295.201Z" fill="#00C7D3"/>
<path d="M-20.5003 239.5C99.2916 73.8994 628.476 57.6945 806.5 262.5C878.631 345.482 738.166 169.5 661.5 69C447.986 16.6716 21.8319 32.3564 -20.5003 126C-53.545 199.099 -39.5003 229.167 -20.5003 239.5Z" fill="#00B5CE"/>
<path d="M-17 231.891C48.1666 246.224 181.4 266.291 193 231.891C207.5 188.891 270.5 168.891 281.5 200.391C292.5 231.891 347 251.391 369.5 217.391C392 183.391 483 171.891 494.5 217.391C506 262.891 534 333.891 582.5 308.391C631 282.891 523 217.391 582.5 217.391C642 217.391 614 288.891 676.5 285.891C726.5 283.491 773 248.891 790 231.891L864 376.391L790 421.891C731.167 398.391 607.3 359.891 582.5 393.891C551.5 436.391 502.5 280.391 463 328.391C423.5 376.391 415 467.391 369.5 421.891C324 376.391 386.5 328.391 321 328.391C255.5 328.391 212.5 325.461 193 285.891C173.5 246.321 54.5 288.391 48.5 308.391C43.7 324.391 -48.5 300.058 -94 285.891L-17 231.891Z" fill="#A3F4FF"/>
<path d="M684 680C518.5 590.833 135.7 421.1 -71.5 455.5C-278.7 489.9 93.8333 562.833 306 595C377.167 597.833 543.9 626.8 641.5 720C739.1 813.2 710.5 732.167 684 680Z" fill="#0091E2"/>
<path d="M403 721.5C403 773.691 360.691 816 308.5 816C256.309 816 214 773.691 214 721.5C214 669.309 256.309 627 308.5 627C360.691 627 403 669.309 403 721.5Z" fill="#8FDADF"/>
<path d="M385 701C385 728.062 363.062 750 336 750C308.938 750 287 728.062 287 701C287 673.938 308.938 652 336 652C363.062 652 385 673.938 385 701Z" fill="#51E8F1"/>
<path d="M733 513.851C733 576.535 682.184 627.351 619.5 627.351C556.816 627.351 506 576.535 506 513.851C506 451.167 556.816 459.351 619.5 459.351C619.5 541.851 688.943 545.579 733 513.851Z" fill="#00C7D3"/>
<path d="M619 521.5C619 546.629 598.629 567 573.5 567C548.371 567 528 546.629 528 521.5C528 496.371 548.371 476 573.5 476C598.629 476 619 496.371 619 521.5Z" fill="#00C7D3"/>
<path d="M605 522C605 539.121 591.121 553 574 553C556.879 553 543 539.121 543 522C543 504.879 556.879 491 574 491C591.121 491 605 504.879 605 522Z" fill="#00E9F8"/>
<path d="M245 406C245 423.121 231.121 437 214 437C196.879 437 183 423.121 183 406C183 388.879 196.879 375 214 375C231.121 375 245 388.879 245 406Z" fill="#00E9F8"/>
<path d="M806 156.5C549.667 229.833 10.2999 423.9 -96.5001 613.5C-203.3 803.1 -203.333 294.833 -190 17L775.5 -113L806 156.5Z" fill="url(#paint0_linear_9_282)"/>
</g>
</g>
<defs>
<linearGradient id="paint0_linear_9_282" x1="304.976" y1="-113" x2="304.976" y2="654.849" gradientUnits="userSpaceOnUse">
<stop stop-color="white"/>
<stop offset="1" stop-color="#D9D9D9" stop-opacity="0"/>
</linearGradient>
<clipPath id="clip0_9_282">
<rect width="770" height="770" fill="white"/>
</clipPath>
</defs>
</svg>
