<svg width="770" height="770" viewBox="0 0 770 770" fill="none" xmlns="http://www.w3.org/2000/svg">
<g clip-path="url(#clip0_9_340)">
<circle cx="385" cy="385" r="385" fill="#BFA79A"/>
<mask id="mask0_9_340" style="mask-type:alpha" maskUnits="userSpaceOnUse" x="0" y="0" width="770" height="770">
<circle cx="385" cy="385" r="385" fill="#BFA79A"/>
</mask>
<g mask="url(#mask0_9_340)">
<path d="M211.5 328C323.5 369.333 550.4 468.3 562 533.5C576.5 615 551.5 749 597.5 770.5C634.3 787.7 813.5 605.333 898.5 512L831.5 409.5C753.5 421.333 597.5 430.1 597.5 370.5C597.5 310.9 573.833 239.333 562 211C523 174.333 434.4 117.3 392 182.5C349.6 247.7 412 268.667 448.5 271C459.167 290 462.8 328 392 328C303.5 328 367.5 211 300 211C246 211 218.5 289 211.5 328Z" fill="#FFDE9D"/>
<path d="M-136 292.5C81.1667 330.333 510.6 434.3 491 547.5C471.4 660.7 523.167 762.333 551.5 799L-33 763.5L-136 292.5Z" fill="#FFABAB"/>
<path d="M2 287.258C50.5262 144.38 601.15 -12.487 767.5 7.25835C814.608 12.8499 291.5 -11.575 62.5 7.25835L2 287.258Z" fill="#FFBEBE"/>
<path d="M779.999 352C733.333 361.333 639.199 368.7 635.999 323.5C631.999 267 594.999 134.5 513.999 120.5C449.199 109.3 578.999 34.8333 651.999 -1L896 307.5L779.999 352Z" fill="#9ABFBF"/>
<path d="M842.5 62C566.833 166.333 8 445.3 -22 726.5C-52 1007.7 -198.5 451.667 -268 138.5L277.5 -101L878.5 -49L842.5 62Z" fill="url(#paint0_linear_9_340)"/>
</g>
</g>
<defs>
<linearGradient id="paint0_linear_9_340" x1="305.25" y1="-101" x2="305.25" y2="803.525" gradientUnits="userSpaceOnUse">
<stop stop-color="white"/>
<stop offset="1" stop-color="white" stop-opacity="0"/>
</linearGradient>
<clipPath id="clip0_9_340">
<rect width="770" height="770" fill="white"/>
</clipPath>
</defs>
</svg>
