<svg width="1500" height="780" viewBox="0 0 1500 780" fill="none" xmlns="http://www.w3.org/2000/svg">
<path d="M1485.92 395.224C1489.78 569.094 1163.42 702.109 756.974 692.321C350.524 682.532 17.8988 533.647 14.034 359.776C10.1691 185.906 336.528 52.8908 742.978 62.6793C1149.43 72.4677 1482.05 221.353 1485.92 395.224Z" fill="#917900"/>
<path d="M1365.73 391.618C1368.96 537.189 1095.72 648.553 755.429 640.358C415.136 632.163 136.651 507.511 133.415 361.941C130.179 216.371 403.418 105.006 743.712 113.201C1084 121.396 1362.49 246.048 1365.73 391.618Z" fill="#AD9100"/>
<path d="M1291.76 389.997C1294.61 518.175 1054.01 616.233 754.38 609.017C454.745 601.801 209.534 492.043 206.685 363.866C203.836 235.688 444.428 137.63 744.062 144.846C1043.7 152.062 1288.91 261.82 1291.76 389.997Z" fill="#DBBB15"/>
<path d="M1199.03 362.617C1201.42 470.24 999.408 552.574 747.822 546.515C496.236 540.457 290.346 448.299 287.954 340.676C285.561 233.052 487.573 150.718 739.159 156.777C990.745 162.836 1196.63 254.994 1199.03 362.617Z" fill="#9D8400"/>
<mask id="mask0_9_163" style="mask-type:alpha" maskUnits="userSpaceOnUse" x="364" y="5" width="771" height="770">
<circle cx="749.976" cy="390" r="385" fill="#D3B200"/>
</mask>
<g mask="url(#mask0_9_163)">
<path d="M1134.98 390C1134.98 602.63 962.605 775 749.976 775C537.346 775 364.976 602.63 364.976 390C364.976 177.37 537.346 5 749.976 5C962.605 5 1134.98 177.37 1134.98 390Z" fill="#D3B200"/>
<path d="M371.976 476C911.902 401.336 1118.69 398.442 1133.48 491.5V538C999.343 576.556 754.721 498.745 298.976 522.5L371.976 476Z" fill="#F4E176"/>
<path d="M389.976 531.5C741.595 664.895 894.455 679.223 1080.48 586.5L998.476 790.5H349.976L389.976 531.5Z" fill="#9B8300"/>
<path d="M369.976 305.5C902.269 275.017 1005.61 297.027 1136.48 347L1208.48 481C1249.33 325.576 588.39 383.506 441.976 436.5C295.562 489.494 343.624 274.371 369.976 305.5Z" fill="#FFE65E"/>
<path d="M438.976 164C867.118 137.757 903.635 191.796 1105.48 242L1122.98 289C836.331 274.551 746.976 134.5 388.976 252C30.9758 369.5 438.976 164 438.976 164Z" fill="#F3CD00"/>
<path d="M1062.98 142C687.877 280.367 589.567 411.394 500.976 686.5L179.976 310L292.976 -83.5L978.976 -97L1062.98 142Z" fill="url(#paint0_linear_9_163)"/>
<path d="M398.143 544.242C654.818 585.772 805.526 597.309 1096.33 565.091C1087.55 585.925 1081.16 595.547 1068.84 611.442C842.695 655.082 718.862 660.379 423.935 591.391C415.121 575.905 396.695 544.631 398.143 544.242Z" fill="#AD9100"/>
<path d="M425.384 591.813C430.099 625.74 441.538 641.677 481.769 663.15C666.692 702.697 780.076 708.975 1006.97 679.785C1043.07 661.672 1058.14 647.937 1068.53 612.043C753.572 665.176 603.807 632.31 425.384 591.813Z" fill="#907900"/>
<path d="M1214.91 474.443C1217.49 551.972 1022.75 604.937 738.117 602.199C452.944 597.138 234.695 497.296 234.016 412.741C232.174 329.857 443.885 548.743 727.82 555.581C1011.76 562.419 1213.07 391.558 1214.91 474.443Z" fill="#DBBB15"/>
</g>
<defs>
<linearGradient id="paint0_linear_9_163" x1="621.476" y1="-97" x2="621.476" y2="686.5" gradientUnits="userSpaceOnUse">
<stop stop-color="white" stop-opacity="0.82"/>
<stop offset="1" stop-color="white" stop-opacity="0"/>
</linearGradient>
</defs>
</svg>
