<svg width="770" height="770" viewBox="0 0 770 770" fill="none" xmlns="http://www.w3.org/2000/svg">
<g clip-path="url(#clip0_9_364)">
<circle cx="385" cy="385" r="385" fill="#FFE600"/>
<mask id="mask0_9_364" style="mask-type:alpha" maskUnits="userSpaceOnUse" x="0" y="0" width="770" height="770">
<circle cx="385" cy="385" r="385" fill="#FFE600"/>
</mask>
<g mask="url(#mask0_9_364)">
<path d="M703 385C703 560.627 560.627 703 385 703C209.373 703 67 560.627 67 385C67 209.373 209.373 67 385 67C560.627 67 703 209.373 703 385Z" fill="#FFEC43"/>
<path d="M648 384.5C648 530.027 530.027 648 384.5 648C238.973 648 121 530.027 121 384.5C121 238.973 238.973 121 384.5 121C530.027 121 648 238.973 648 384.5Z" fill="#FFEF62"/>
<path d="M602 384.5C602 504.622 504.622 602 384.5 602C264.378 602 167 504.622 167 384.5C167 264.378 264.378 167 384.5 167C504.622 167 602 264.378 602 384.5Z" fill="#FFF178"/>
<path d="M313.959 269.997C313.959 314.732 277.694 350.997 232.959 350.997C188.224 350.997 258.077 237.701 258.077 192.966C258.077 148.231 188.224 188.997 232.959 188.997C277.694 188.997 313.959 225.261 313.959 269.997Z" fill="#FFD600"/>
<path d="M346.999 475.376C346.999 435.639 237.977 375 267.673 375C297.369 375 250.999 475.638 250.999 515.376C250.999 555.113 297.369 518.902 267.673 518.902C237.977 518.902 346.999 515.114 346.999 475.376Z" fill="#FFD600"/>
<path d="M403.499 466C403.499 488.368 493.867 466 471.499 466C449.132 466 430.999 447.868 430.999 425.5C430.999 403.132 449.132 385 471.499 385C493.867 385 403.499 443.632 403.499 466Z" fill="#FFD600"/>
<path d="M105.961 507.06C123.793 537.946 230.636 435.078 199.777 452.895C168.918 470.712 129.446 460.117 111.614 429.232C93.782 398.346 104.343 358.865 135.202 341.048C166.062 323.232 88.129 476.174 105.961 507.06Z" fill="#FFD600"/>
<path d="M356.499 137.5C356.499 182.235 556.734 253 511.999 253C467.264 253 430.999 216.735 430.999 172C430.999 127.265 467.264 91 511.999 91C556.734 91 356.499 92.765 356.499 137.5Z" fill="#FFD600"/>
<path d="M345.999 576C345.999 620.735 309.734 657 264.999 657C220.264 657 183.999 620.735 183.999 576C183.999 531.265 267.764 576 312.499 576C357.234 576 345.999 531.265 345.999 576Z" fill="#FFD600"/>
<path d="M653.482 483.317C692.223 505.684 508.499 525.518 486.132 564.259C463.764 603.001 611.223 645.98 572.482 623.613C533.74 601.245 614.364 551.07 636.732 512.329C659.099 473.587 614.74 460.949 653.482 483.317Z" fill="#FFD600"/>
<path d="M632 378.5C632 406.943 608.943 430 580.5 430C552.057 430 662 319.943 662 291.5C662 263.057 552.057 327 580.5 327C608.943 327 632 350.057 632 378.5Z" fill="#FFD600"/>
<path d="M360.604 253.514C360.604 297.421 404.511 333.014 360.604 333.014C316.697 333.014 455.105 328.421 455.105 284.514C455.105 240.607 351.198 253.514 395.105 253.514C439.011 253.514 360.604 209.607 360.604 253.514Z" fill="#FFD600"/>
<path d="M798 170C449.176 262.055 274.113 401.204 -6.5 784L-362 272L159 -24.5L798 -71V170Z" fill="url(#paint0_linear_9_364)"/>
</g>
</g>
<defs>
<linearGradient id="paint0_linear_9_364" x1="218" y1="-71" x2="218" y2="784" gradientUnits="userSpaceOnUse">
<stop stop-color="white"/>
<stop offset="1" stop-color="#D9D9D9" stop-opacity="0"/>
</linearGradient>
<clipPath id="clip0_9_364">
<rect width="770" height="770" fill="white"/>
</clipPath>
</defs>
</svg>
