<svg width="770" height="770" viewBox="0 0 770 770" fill="none" xmlns="http://www.w3.org/2000/svg">
<g clip-path="url(#clip0_9_260)">
<circle cx="385" cy="385" r="385" fill="#DB6900"/>
<mask id="mask0_9_260" style="mask-type:alpha" maskUnits="userSpaceOnUse" x="0" y="0" width="770" height="770">
<circle cx="385" cy="385" r="385" fill="#C68967"/>
</mask>
<g mask="url(#mask0_9_260)">
<path d="M240 -15.5C273.667 37.1667 330.9 147.6 290.5 168C250.1 188.4 301 319.833 331.5 383C383.167 467.5 468.8 641.5 398 661.5C327.2 681.5 398.167 800.5 442.5 857.5L641.5 740.5C577.167 718.333 459.9 662.6 505.5 617C551.1 571.4 596.167 454.667 613 402L398 316.5C368.5 262.667 320.9 150 366.5 130C412.1 110 406.5 -19.3333 398 -81.5L240 -15.5Z" fill="#C97800"/>
<path d="M-18 616C34.6667 596.63 145.1 563.701 165.5 586.945C185.9 610.189 317.333 580.904 380.5 563.356C465 533.63 639 484.362 659 525.096C679 565.83 798 525 855 499.493L738 385C715.833 422.014 660.1 489.482 614.5 463.247C568.9 437.011 452.167 411.082 399.5 401.397L314 525.096C260.167 542.068 147.5 569.455 127.5 543.219C107.5 516.984 -21.8333 520.205 -84 525.096L-18 616Z" fill="#A96500"/>
<path d="M834.5 386.5H613C560.333 376 441.1 361.3 385.5 386.5C316 418 167 399 176.5 370.5C184.1 347.7 112.333 323 75.5 313.5L-120.5 386.5C-55.1667 428.667 85.5999 509.8 126 497C176.5 481 300 465 319 481C338 497 433 484.5 474 459C506.8 438.6 618.333 465.167 670 481L834.5 386.5Z" fill="#CD4C4C"/>
<path d="M790 304C702.5 324 511.7 352 448.5 304C369.5 244 297.5 364 237 304C188.6 256 98.5 250.333 59.5 253.5L-38.5 181L145 152.5C176.5 199.833 246.5 286.3 274.5 253.5C309.5 212.5 360 164.5 417 209C462.6 244.6 537.333 236.5 569 228L790 304Z" fill="#9F1F1F"/>
<path d="M746 592C674.333 568.667 523.4 529 493 557C455 592 284 690 224 623.5C176 570.3 73.3333 601.333 28 623.5L69 531.5C131.167 528.333 258.7 529 271.5 557C284.3 585 411.833 535 474 506.5L746 531.5V592Z" fill="#C5C5C5"/>
<path d="M851.762 196C630.429 226.333 129.962 370.5 -101.238 704.5C-332.438 1038.5 -336.571 408.333 -309.738 51.5L717.762 -29L851.762 196Z" fill="url(#paint0_linear_9_260)"/>
</g>
</g>
<defs>
<linearGradient id="paint0_linear_9_260" x1="265.381" y1="-29" x2="265.381" y2="799.105" gradientUnits="userSpaceOnUse">
<stop stop-color="white" stop-opacity="0.7"/>
<stop offset="1" stop-color="white" stop-opacity="0"/>
</linearGradient>
<clipPath id="clip0_9_260">
<rect width="770" height="770" fill="white"/>
</clipPath>
</defs>
</svg>
