<svg width="922" height="889" viewBox="0 0 922 889" fill="none" xmlns="http://www.w3.org/2000/svg">
<g opacity="0.5">
<path d="M480.274 791.477C302.6 791.477 158.569 776.787 158.569 758.668C158.569 751.753 179.548 745.338 215.37 740.048C214.104 745.133 214.411 751.398 219.154 757.137C225.064 764.287 236.963 764.506 238.305 764.508H275.521C275.636 764.508 275.752 764.502 275.865 764.492C276.346 764.446 287.71 763.213 292.071 750.676C292.626 749.081 293.237 742.948 293.973 731.918C295.787 731.787 297.605 731.658 299.449 731.531C299.641 740.751 300.118 747.189 301.298 750.582C305.659 763.119 317.023 764.352 317.504 764.398C317.62 764.409 317.735 764.414 317.85 764.414H350.217C351.215 764.462 353.103 764.536 355.491 764.536C363.171 764.536 376.035 763.787 381.129 759.103C387.915 752.864 388.503 742.952 382.524 735.532C379.811 732.169 375.918 730.03 373.26 728.866C373.306 728.514 373.357 728.129 373.41 727.714C406.842 726.515 442.818 725.861 480.274 725.861C484.361 725.861 488.436 725.867 492.486 725.884C493.535 727.552 494.632 729.221 495.782 730.895C509.474 750.819 525.418 763.946 526.091 764.495C526.625 764.933 527.275 765.207 527.962 765.285C528.179 765.311 528.414 765.322 528.661 765.322C530.366 765.322 532.697 764.695 534.534 762.86C537.086 760.311 538.063 756.208 537.441 750.667C537.205 748.572 536.887 746.064 536.535 743.277C535.94 738.586 535.177 732.57 534.573 726.326C559.481 726.757 583.411 727.481 606.017 728.461C612.775 748.498 621.962 761.719 621.962 761.719C621.962 761.719 630.673 749.187 637.369 730.033C663.499 731.526 687.378 733.382 708.352 735.532C708.017 738.347 707.685 740.972 707.393 743.277C707.038 746.064 706.722 748.572 706.485 750.667C705.862 756.208 706.842 760.311 709.393 762.86C711.231 764.695 713.561 765.322 715.264 765.322C715.513 765.322 715.746 765.311 715.963 765.285C716.65 765.207 717.3 764.933 717.837 764.495C718.406 764.031 729.926 754.546 741.756 739.552C779.654 744.934 801.978 751.536 801.978 758.668C801.978 776.787 657.946 791.477 480.274 791.477Z" fill="#AEC4DA"/>
<path d="M661.502 678.709C661.502 678.709 702.211 676.252 711.392 692.904C717.117 703.292 711.662 736.812 710.06 751.068C708.783 762.471 715.559 761.708 715.559 761.708C715.559 761.708 747.08 735.956 759.08 702.363L759.087 702.356C764.218 687.989 765.785 672.193 759.79 656.363C753.686 640.214 740.762 629.97 727.324 623.472C706.542 613.427 684.506 612.365 684.506 612.365L661.502 678.709Z" fill="#F73939"/>
<path d="M661.502 678.709C661.502 678.709 702.211 676.252 711.392 692.904C717.117 703.292 711.662 736.812 710.06 751.068C708.783 762.471 715.559 761.708 715.559 761.708C715.559 761.708 747.08 735.956 759.08 702.363C758.557 702.905 739.278 722.859 727.37 716.244C721.151 712.791 724.895 698.562 720.077 685.938C715.257 673.307 714.64 659.463 719.134 646.712L727.324 623.472C706.542 613.427 684.506 612.365 684.506 612.365L661.502 678.709Z" fill="#D82345"/>
<path d="M667.749 674.945C680.348 674.945 706.593 676.743 714.543 691.161C719.586 700.305 717.417 721.46 714.536 744.183C714.188 746.933 713.874 749.406 713.642 751.471C713.144 755.902 714.121 757.37 714.432 757.713C714.471 757.757 714.511 757.796 714.552 757.831C723.318 750.162 773.747 703.401 756.422 657.635C743.706 624.035 698.477 617.346 686.996 616.182L666.617 674.95C666.982 674.945 667.36 674.945 667.749 674.945ZM715.264 765.322C713.561 765.322 711.231 764.695 709.394 762.86C706.842 760.311 705.862 756.208 706.485 750.667C706.722 748.572 707.038 746.064 707.393 743.277C709.2 729.021 712.565 702.486 708.239 694.639C701.619 682.637 672.414 681.665 661.719 682.305C660.525 682.384 659.361 681.844 658.633 680.885C657.909 679.927 657.709 678.668 658.103 677.532L681.107 611.182C681.63 609.672 683.084 608.663 684.682 608.764C687.217 608.889 746.947 612.256 763.158 655.088C771.774 677.852 766.583 704.067 748.145 730.895C734.451 750.819 718.507 763.946 717.837 764.495C717.3 764.933 716.65 765.207 715.963 765.285C715.746 765.311 715.513 765.322 715.264 765.322Z" fill="#371A45"/>
<path d="M752.675 682.149C752.675 682.149 741.237 662.77 738.697 640.64C738.697 640.64 756.063 655.676 752.675 682.149Z" fill="#FDC3C3"/>
<path d="M268.329 464.815L269.671 483.425L270.358 492.903L282.155 656.376C282.155 656.376 270.964 656.549 255.938 655.572C252.999 655.381 249.913 655.148 246.734 654.86C223.056 652.728 194.308 647.61 183.392 635.44C167.075 617.237 164.353 528.366 178.922 493.127C185.595 476.971 219.511 469.936 243.597 466.942C246.287 466.601 248.859 466.318 251.252 466.08C261.345 465.059 268.329 464.815 268.329 464.815Z" fill="white"/>
<path d="M217.422 647.004C203.94 644.075 192.015 639.665 186.074 633.038C183.954 630.676 182.083 626.939 180.468 622.166C184.876 624.839 190.093 626.176 195.273 626.176C201.5 626.176 207.67 624.242 212.306 620.372C214.395 618.627 215.978 616.362 217.153 613.741C217.211 623.71 217.307 635.184 217.422 647.004ZM218.958 582.241C218.529 579.334 218.026 576.621 217.53 574.238C216.731 570.395 213.754 567.443 210.019 566.597C209.94 557.782 210.431 548.463 211.888 539.172C216.808 539.983 221.39 540.486 225.428 540.788C222.238 553.583 219.549 568.173 218.958 582.241ZM173.152 565.091C173.082 559.615 173.146 554.099 173.349 548.648C173.734 554.237 174.27 559.665 174.953 564.799C174.343 564.84 173.74 564.939 173.152 565.091Z" fill="#C5BDC9"/>
<path d="M264.992 468.57C241.573 469.807 189.788 476.259 182.245 494.499C168.398 527.993 170.83 616.037 186.073 633.038C202.213 651.04 262.47 652.668 278.289 652.781L264.992 468.57ZM279.527 659.995C265.158 659.995 199.521 658.824 180.712 637.844C163.529 618.678 160.37 528.562 175.591 491.749C180.471 479.945 197.746 471.227 226.935 465.843C247.986 461.959 267.389 461.247 268.205 461.219L271.672 461.099L286.025 659.919L282.215 659.979C281.913 659.984 280.984 659.995 279.527 659.995Z" fill="#371A45"/>
<path d="M175.938 568.385L208.127 569.957C211.001 570.098 213.42 572.154 214.006 574.971C216.152 585.286 219.871 609.366 209.999 617.609C201.804 624.45 188.199 624.028 180.062 617.498C170.96 610.193 169.471 586.519 169.308 574.784C169.258 571.135 172.294 568.208 175.938 568.385Z" fill="white"/>
<path d="M195.282 618.987C190.613 618.987 185.882 617.553 182.315 614.69C179.796 612.669 177.699 608.538 176.127 602.741C176.51 603.17 176.903 603.569 177.306 603.94C182.098 608.359 186.474 609.931 190.274 609.931C199.64 609.931 205.511 600.386 205.511 600.386C205.511 600.386 207.727 604.834 209.405 605.046C209.544 605.062 209.679 605.072 209.81 605.072C210.954 605.072 211.837 604.422 212.509 603.292C211.875 608.437 210.38 612.6 207.691 614.845C204.379 617.609 199.86 618.987 195.282 618.987Z" fill="#C5BDC9"/>
<path d="M175.625 571.976C174.916 571.976 174.25 572.246 173.737 572.742C173.192 573.267 172.897 573.975 172.908 574.736C173.193 595.255 176.71 610.191 182.315 614.69C189.38 620.358 201.001 620.428 207.691 614.845C214.559 609.11 213.636 590.866 210.48 575.706C210.23 574.498 209.189 573.613 207.951 573.553L175.763 571.981C175.717 571.979 175.671 571.976 175.625 571.976ZM195.273 626.176C189.006 626.176 182.685 624.219 177.809 620.305C168.222 612.611 165.937 591.332 165.708 574.835C165.671 572.108 166.774 569.455 168.735 567.56C170.697 565.665 173.394 564.649 176.114 564.79L208.303 566.362C212.817 566.583 216.612 569.821 217.53 574.238C220.296 587.531 223.295 611.198 212.306 620.372C207.671 624.242 201.5 626.176 195.273 626.176Z" fill="#371A45"/>
<path d="M192.688 619.736C203.245 613.222 204.592 599.072 204.063 587.713C203.943 585.906 203.753 583.999 203.308 582.411C203.005 581.282 204.665 580.712 205.106 581.821C206.993 587.339 207.269 592.92 207.382 598.668C207.514 608.603 204.175 619.803 195.393 625.519C191.269 627.767 188.31 621.469 192.688 619.736Z" fill="#371A45"/>
<path d="M227.275 491.23C211.922 490.903 195.953 490.617 180.982 494.19C176.38 495.319 174.529 488.598 179.094 487.233C191.286 485.02 203.452 485.719 215.672 486.454C219.649 486.742 223.593 487.081 227.575 487.531C228.594 487.646 229.327 488.563 229.212 489.584C229.102 490.564 228.244 491.278 227.275 491.23Z" fill="#371A45"/>
<path d="M297.299 595.856C296.621 606.07 295.238 637.217 293.726 668.849C291.903 707.07 289.89 745.995 288.671 749.496C285.015 759.995 275.521 760.91 275.521 760.91H238.307C238.307 760.91 226.931 760.894 221.927 754.844C213.708 744.9 222.066 734.08 222.066 734.08C222.066 734.08 221.436 688.99 221.027 647.719C220.856 629.979 220.725 612.939 220.7 600.492L297.299 595.856Z" fill="white"/>
<path d="M288.876 669.003C264.141 669.003 243.484 657.033 224.645 649.18C224.54 638.653 224.45 628.35 224.387 619.068C225.216 620.93 226.151 622.714 227.197 624.406C227.571 624.985 228.113 625.229 228.653 625.229C228.968 625.229 229.282 625.146 229.561 624.996C240.55 644.549 264.602 656.187 290.568 659.486C290.421 662.611 290.269 665.79 290.116 668.992C289.701 668.999 289.289 669.003 288.876 669.003Z" fill="#C5BDC9"/>
<path d="M275.295 757.308H238.316C235.612 757.294 227.898 756.413 224.705 752.55C222.15 749.459 221.678 746.232 222.03 743.473C228.024 747.332 236.68 747.346 236.68 747.346H277.003C277.003 747.346 281.676 746.894 285.935 743.118C285.689 745.815 285.465 747.618 285.271 748.311C282.63 755.902 276.273 757.158 275.295 757.308Z" fill="#C5BDC9"/>
<path d="M275.521 764.509H238.305C236.963 764.506 225.064 764.287 219.154 757.137C211.775 748.21 215.131 738.003 218.449 732.962C218.3 722.092 217.168 638.918 217.1 600.503C217.097 598.514 218.706 596.9 220.695 596.896H220.701C222.687 596.896 224.298 598.502 224.301 600.489C224.373 641.387 225.653 733.112 225.665 734.034C225.677 734.848 225.412 735.643 224.914 736.286C224.658 736.625 218.46 744.994 224.705 752.55C227.898 756.413 235.612 757.294 238.316 757.308H275.295C276.273 757.158 282.63 755.902 285.271 748.311C286.65 743.404 289.478 682.847 291.35 642.777C292.348 621.442 293.21 603.016 293.703 595.612C293.834 593.63 295.556 592.125 297.534 592.261C299.519 592.392 301.021 594.109 300.888 596.091C300.397 603.424 299.539 621.818 298.544 643.113C295.289 712.738 293.491 746.594 292.071 750.676C287.71 763.213 276.346 764.446 275.865 764.492C275.752 764.502 275.636 764.509 275.521 764.509Z" fill="#371A45"/>
<path d="M379.719 737.794C384.068 743.183 384.649 750.976 378.695 756.455C372.734 761.934 350.304 760.814 350.304 760.814H317.848C317.848 760.814 308.353 759.896 304.698 749.397C301.867 741.251 303.545 707.626 302.531 669.234C302.319 661.079 301.982 652.714 301.459 644.333L383.07 604.574C381.805 619.547 380.412 634.2 379.006 647.931C374.198 695.066 369.316 731.217 369.316 731.217C369.316 731.217 375.989 733.165 379.719 737.794Z" fill="white"/>
<path d="M355.154 757.328C353.506 757.328 351.925 757.289 350.484 757.218C350.427 757.215 350.365 757.213 350.307 757.213H318.085C317.023 757.047 310.723 755.761 308.1 748.217C307.893 747.622 307.713 746.831 307.556 745.866C310.092 746.981 312.019 747.168 312.019 747.168H348.714C348.714 747.168 350.837 747.272 354.016 747.272C360.958 747.272 372.947 746.769 378.889 743.565C380.051 746.875 379.62 750.711 376.257 753.802C373.472 756.365 363.45 757.328 355.154 757.328Z" fill="#C5BDC9"/>
<path d="M306.136 669.229C306.06 666.329 305.968 663.404 305.86 660.461C305.917 660.461 305.979 660.461 306.037 660.461C331.039 660.459 355.791 652.838 370.676 637.236C371.02 637.556 371.465 637.72 371.912 637.72C372.329 637.72 372.751 637.577 373.092 637.282C374.415 636.148 375.655 634.917 376.814 633.61C376.296 638.951 375.77 644.192 375.245 649.302C370.745 651.029 365.831 653.214 360.566 655.985C339.478 667.099 317.219 669.038 306.136 669.229Z" fill="#C5BDC9"/>
<path d="M355.491 764.536C353.103 764.536 351.215 764.462 350.217 764.414H317.85C317.735 764.414 317.62 764.409 317.504 764.398C317.023 764.352 305.659 763.119 301.298 750.582C299.32 744.9 299.318 730.671 299.316 709.138C299.313 690.615 299.309 667.563 297.866 644.561C297.741 642.576 299.249 640.868 301.233 640.744C303.211 640.624 304.928 642.127 305.053 644.111C306.51 667.337 306.514 690.513 306.517 709.136C306.519 727.672 306.521 743.681 308.1 748.217C310.723 755.761 317.023 757.047 318.085 757.213H350.307C350.365 757.213 350.427 757.216 350.484 757.218C359.183 757.647 372.919 756.872 376.257 753.802C380.915 749.519 379.945 743.81 376.916 740.05C373.965 736.39 368.357 734.689 368.302 734.673C366.601 734.168 365.513 732.494 365.75 730.736C365.831 730.134 373.938 669.787 379.486 604.272C379.652 602.292 381.399 600.819 383.377 600.99C385.359 601.158 386.827 602.9 386.661 604.88C381.779 662.505 374.927 716.147 373.26 728.866C375.918 730.03 379.811 732.169 382.524 735.532C388.503 742.952 387.915 752.864 381.129 759.103C376.035 763.787 363.171 764.536 355.491 764.536Z" fill="#371A45"/>
<path d="M334.246 700.241C316.956 700.241 303.146 697.433 302.146 697.223C300.198 696.818 298.951 694.911 299.357 692.966C299.76 691.018 301.667 689.774 303.614 690.175C304.025 690.26 345.116 698.592 373.271 686.157C375.088 685.35 377.218 686.175 378.02 687.994C378.824 689.815 378.001 691.938 376.183 692.742C362.989 698.569 347.582 700.241 334.246 700.241Z" fill="#371A45"/>
<path d="M260.456 694.598C236.401 694.598 221.053 689.075 220.165 688.748C218.3 688.059 217.345 685.989 218.034 684.122C218.722 682.259 220.789 681.305 222.654 681.992C222.942 682.096 251.927 692.445 292.219 684.099C294.162 683.691 296.07 684.947 296.474 686.892C296.877 688.84 295.625 690.746 293.678 691.15C281.427 693.687 270.222 694.598 260.456 694.598Z" fill="#371A45"/>
<path d="M219.756 731.323C231.436 722.777 258.22 727.596 272.17 729.297C274.415 729.652 274.074 733.011 271.778 732.877C267.562 732.57 263.348 732.308 259.144 732.137C249.906 731.826 240.43 731.621 231.452 733.654C228.945 734.272 225.978 735.378 224.247 736.955C220.433 740.023 215.905 734.373 219.756 731.323Z" fill="#371A45"/>
<path d="M368.475 734.719C360.88 732.326 352.405 731.877 344.353 732.107C342.143 732.165 341.804 728.929 343.975 728.527C352.637 727.052 361.302 726.287 370.162 727.718C375.187 728.744 373.426 736.095 368.475 734.719Z" fill="#371A45"/>
<path d="M582.425 678.709C582.425 678.709 541.714 676.252 532.533 692.904C526.81 703.292 532.264 736.812 533.866 751.068C535.145 762.471 528.366 761.708 528.366 761.708C528.366 761.708 496.845 735.956 484.848 702.363L484.838 702.356C479.707 687.989 478.142 672.193 484.135 656.363C490.239 640.214 503.163 629.97 516.601 623.472C537.385 613.427 559.419 612.365 559.419 612.365L582.425 678.709Z" fill="#F73939"/>
<path d="M582.425 678.709C582.425 678.709 541.714 676.252 532.533 692.904C526.81 703.292 532.264 736.812 533.866 751.068C535.145 762.471 528.366 761.708 528.366 761.708C528.366 761.708 496.845 735.956 484.847 702.363C485.368 702.905 504.65 722.859 516.557 716.244C522.776 712.791 519.031 698.562 523.848 685.938C528.668 673.307 529.286 659.463 524.793 646.712L516.601 623.472C537.385 613.427 559.419 612.365 559.419 612.365L582.425 678.709Z" fill="#D82345"/>
<path d="M556.932 616.182C545.448 617.346 500.219 624.035 487.503 657.635C470.16 703.456 520.605 750.171 529.373 757.831C529.415 757.796 529.454 757.757 529.495 757.713C529.806 757.37 530.784 755.902 530.286 751.471C530.053 749.406 529.739 746.933 529.391 744.183C526.508 721.46 524.341 700.305 529.382 691.161C537.581 676.298 565.209 674.839 577.308 674.95L556.932 616.182ZM528.661 765.322C528.414 765.322 528.179 765.311 527.962 765.285C527.275 765.207 526.625 764.933 526.091 764.495C525.418 763.946 509.474 750.819 495.782 730.895C477.342 704.067 472.151 677.852 480.767 655.088C496.979 612.256 556.708 608.889 559.243 608.764C560.848 608.663 562.295 609.672 562.819 611.182L585.825 677.532C586.219 678.668 586.018 679.927 585.292 680.885C584.566 681.844 583.407 682.384 582.208 682.305C571.511 681.665 542.306 682.637 535.689 694.639C531.362 702.486 534.725 729.021 536.535 743.277C536.887 746.064 537.205 748.572 537.441 750.667C538.063 756.208 537.086 760.311 534.534 762.86C532.697 764.695 530.366 765.322 528.661 765.322Z" fill="#371A45"/>
<path d="M547.776 660.569L552.656 683.414C554.864 693.75 562.57 702.038 572.716 704.993C602.932 713.794 634.981 714.16 665.389 706.051C675.602 703.327 683.492 695.216 685.936 684.935L691.336 662.206L547.776 660.569Z" fill="#22A7F0"/>
<path d="M661.597 703.308C663.879 701.988 665.961 700.363 667.786 698.489C671.333 694.833 673.922 690.235 675.144 685.09L678.723 670.02C681.266 669.303 683.804 668.535 686.325 667.722L682.434 684.101C680.293 693.109 673.408 700.185 664.462 702.571C663.51 702.824 662.554 703.071 661.597 703.308Z" fill="#65C2F5"/>
<path d="M623.507 711.855C606.413 712.109 589.292 709.815 572.719 704.993C562.57 702.038 554.869 693.745 552.656 683.416L547.779 660.574L622.908 661.422C618.005 664.064 611.705 669.909 611.892 682.54C612.199 703.129 632.065 711.487 632.065 711.487L632.132 711.505C629.265 711.703 626.386 711.814 623.507 711.855Z" fill="#2585EF"/>
<path d="M745.492 533.796C744.819 537.226 744.098 540.594 743.36 543.888C738.328 566.173 731.992 585.318 725.476 601.303C723.155 607.019 720.813 612.321 718.492 617.235C704.332 647.235 691.336 662.213 691.336 662.213C682.497 665.361 673.514 667.911 664.405 669.826C664.045 669.9 663.686 669.981 663.326 670.052C626.142 677.675 587.404 674.966 551.427 661.915C550.213 661.482 548.998 661.033 547.79 660.565C547.79 660.565 511.616 616.975 496.55 530.881C490.762 497.875 488.088 458.624 491.733 413.187C504.207 257.936 583.504 183.84 613.709 160.986C620.566 155.797 630.076 155.885 636.814 161.23C655.348 175.931 692.639 211.11 720.165 273.421C732.425 301.19 742.756 334.331 748.616 373.449C750.264 384.403 751.559 395.824 752.433 407.722C752.659 410.514 752.838 413.34 753.009 416.175C755.611 461.719 752.027 500.927 745.492 533.796Z" fill="white"/>
<path d="M600.457 669.559C583.218 667.747 566.311 663.732 549.989 657.561C546.9 653.576 531.745 633.018 518.051 596.723C512.816 582.849 507.404 565.552 503.013 544.994C520.589 577.439 543.673 590.956 559.571 590.956C572.479 590.956 580.653 582.047 577.294 567.127C574.793 556.024 550.51 539.02 549.305 476.858C553.177 490.976 561.046 503.693 572.251 513.644C586.36 526.174 604.198 532.932 622.91 532.932C624.448 532.932 625.992 532.888 627.539 532.796C647.922 531.588 666.615 522.514 680.175 507.245C685.122 501.676 689.167 495.527 692.256 488.971C688.393 541.32 667.15 556.782 664.82 567.127C661.464 582.045 669.637 590.954 682.543 590.956C698.574 590.958 721.905 577.223 739.534 544.187C734.52 566.186 728.373 584.53 722.511 599.056C707.995 635.034 692.376 655.242 689.202 659.152C674.332 664.389 659.023 667.855 643.464 669.522C639.172 642.576 626.819 621.555 623.06 615.638C622.366 614.543 621.967 613.967 621.967 613.967C621.967 613.967 621.967 613.969 621.965 613.969C621.965 613.964 621.963 613.964 621.963 613.964C621.963 613.964 616.299 622.115 610.594 635.316C608.499 640.161 606.397 645.688 604.567 651.743L604.571 651.746C602.903 657.282 601.46 663.261 600.457 669.559Z" fill="#C5BDC9"/>
<path d="M727.924 292.514C700.443 286.311 672.569 282.468 644.586 280.991C602.822 278.778 560.841 281.821 519.637 290.137C549.132 216.502 592.975 176.674 613.695 160.984C620.561 155.79 630.076 155.899 636.828 161.246C637.339 161.65 637.872 162.074 638.411 162.514C659.338 179.481 700.821 220.093 727.924 292.514Z" fill="#F73939"/>
<path d="M644.586 280.991C658.412 235.843 647.527 189.229 638.411 162.514C659.338 179.481 700.821 220.093 727.923 292.514C700.443 286.311 672.569 282.468 644.586 280.991Z" fill="#D82345"/>
<path d="M618.291 276.614C653.027 276.614 687.727 280.265 722.168 287.565C695.446 219.982 656.635 181.775 635.493 164.791C629.498 159.976 621.05 159.882 614.951 164.559C593.429 181.053 553.763 218.369 525.508 285.32C556.344 279.516 587.33 276.614 618.291 276.614ZM727.928 296.11C727.666 296.11 727.398 296.08 727.135 296.022C658.688 280.581 589.117 279.788 520.349 293.662C519.049 293.924 517.717 293.454 516.871 292.438C516.023 291.421 515.801 290.022 516.295 288.796C545.303 216.366 587.812 176.286 610.569 158.845C619.312 152.144 631.413 152.282 640.002 159.179C662.358 177.135 703.949 218.173 731.301 291.246C731.764 292.486 731.51 293.878 730.641 294.876C729.95 295.669 728.956 296.11 727.928 296.11Z" fill="#371A45"/>
<path d="M549.989 657.561C572.271 665.984 595.64 670.391 619.462 670.663C643.275 670.932 666.742 667.062 689.202 659.152C692.376 655.242 707.994 635.034 722.511 599.056C737.441 562.058 754.223 500.333 749.404 416.384C746.914 373.016 738.785 332.388 725.234 295.596C658.031 280.708 589.753 279.931 522.244 293.284C507.858 329.758 498.804 370.185 495.326 413.485C488.593 497.304 503.967 559.394 518.051 596.723C531.745 633.018 546.9 653.576 549.989 657.561ZM621.813 677.877C621.001 677.877 620.19 677.873 619.379 677.864C594.374 677.578 569.851 672.892 546.492 663.934C545.916 663.713 545.404 663.349 545.01 662.872C544.289 662.003 527.144 641.074 511.454 599.634C497.039 561.558 481.291 498.258 488.148 412.909C491.742 368.171 501.208 326.411 516.281 288.793C516.758 287.599 517.827 286.767 519.067 286.576C588.789 272.527 659.324 273.341 728.721 288.996C729.903 289.264 730.874 290.11 731.3 291.246C745.511 329.198 754.021 371.16 756.591 415.972C761.5 501.455 744.319 564.382 729.041 602.117C712.413 643.187 694.798 663.72 694.056 664.573C693.653 665.041 693.134 665.394 692.551 665.603C669.771 673.751 645.983 677.877 621.813 677.877Z" fill="#371A45"/>
<path d="M620.949 715.474C604.362 715.474 587.784 713.132 571.709 708.449C560.274 705.12 551.626 695.815 549.136 684.165L544.254 661.321C543.839 659.375 545.079 657.462 547.025 657.047C548.973 656.632 550.881 657.872 551.298 659.815L556.178 682.66C558.112 691.714 564.836 698.947 573.724 701.536C603.311 710.154 634.686 710.514 664.462 702.571C673.408 700.185 680.293 693.109 682.434 684.101L687.835 661.374C688.294 659.44 690.237 658.243 692.168 658.702C694.105 659.163 695.299 661.104 694.84 663.038L689.439 685.767C686.685 697.355 677.827 706.459 666.318 709.53C651.448 713.494 636.194 715.474 620.949 715.474Z" fill="#371A45"/>
<path d="M692.964 476.877C684.585 505.606 658.905 527.336 627.322 529.198C593.676 531.196 564.001 510.018 553.875 479.477L553.866 479.468C551.904 473.565 550.681 467.3 550.293 460.793C547.908 420.63 578.536 386.14 618.699 383.764C658.87 381.378 693.351 412.007 695.736 452.17C696.241 460.746 695.241 469.072 692.964 476.877Z" fill="#C6C6C6"/>
<path d="M683.898 423.498C670.165 404.576 647.887 392.431 623.099 392.431C621.594 392.431 620.086 392.475 618.565 392.567C595.179 393.948 574.936 405.876 562.171 423.452C573.23 403.156 594.192 388.819 618.915 387.355C620.305 387.272 621.684 387.231 623.057 387.231C649.042 387.231 672.085 401.775 683.898 423.498Z" fill="#EEEEEE"/>
<path d="M692.964 476.877C684.585 505.606 658.905 527.336 627.322 529.198C593.676 531.196 564.001 510.018 553.875 479.477C553.875 479.477 573.749 493.222 571.661 460.793H672.262C670.174 493.222 690.057 479.477 690.057 479.477L692.964 476.877Z" fill="#898989"/>
<path d="M623.057 387.231C621.684 387.231 620.305 387.272 618.915 387.355C580.8 389.614 551.628 422.463 553.887 460.578C554.982 479.044 563.201 495.976 577.031 508.259C590.861 520.543 608.649 526.704 627.112 525.609C645.575 524.514 662.51 516.295 674.791 502.465C687.074 488.635 693.235 470.847 692.141 452.384C689.962 415.656 659.384 387.231 623.057 387.231ZM622.91 532.932C604.198 532.932 586.36 526.174 572.251 513.644C556.982 500.084 547.908 481.39 546.697 461.005C544.203 418.925 576.409 382.66 618.489 380.166C638.884 378.965 658.508 385.76 673.779 399.318C689.047 412.879 698.12 431.572 699.33 451.957C700.538 472.343 693.736 491.977 680.175 507.245C666.615 522.514 647.921 531.588 627.538 532.796C625.992 532.888 624.447 532.932 622.91 532.932Z" fill="#371A45"/>
<path d="M625.134 506.312C653.101 504.654 674.429 480.639 672.769 452.672C671.112 424.705 647.096 403.377 619.13 405.035C591.163 406.692 569.835 430.708 571.492 458.674C573.152 486.643 597.168 507.969 625.134 506.312Z" fill="#22A7F0"/>
<path d="M622.191 421.723C621.506 421.723 620.819 421.743 620.128 421.785C611.069 422.32 602.767 426.349 596.744 433.128C590.723 439.909 587.703 448.627 588.243 457.681C588.778 466.733 592.807 475.035 599.588 481.058C606.367 487.079 615.094 490.098 624.139 489.566C633.193 489.029 641.495 485.002 647.518 478.221C653.541 471.437 656.563 462.717 656.024 453.661C655.487 444.607 651.46 436.307 644.678 430.286C638.416 424.724 630.498 421.723 622.191 421.723ZM622.08 496.827C612.003 496.827 602.4 493.187 594.805 486.44C586.588 479.143 581.704 469.079 581.054 458.107C580.401 447.135 584.062 436.565 591.361 428.347C598.659 420.13 608.725 415.246 619.701 414.596C630.673 413.95 641.242 417.604 649.459 424.901C657.679 432.199 662.563 442.263 663.211 453.234C663.865 464.209 660.203 474.782 652.903 483.001C645.6 491.221 635.537 496.105 624.563 496.753C623.733 496.801 622.903 496.827 622.08 496.827Z" fill="#371A45"/>
<path d="M622.196 408.545C621.248 408.545 620.298 408.573 619.344 408.63C606.777 409.375 595.252 414.967 586.894 424.38C578.536 433.792 574.344 445.895 575.088 458.462C576.626 484.403 598.993 504.228 624.92 502.718C650.86 501.181 670.713 478.825 669.176 452.884C668.431 440.32 662.837 428.794 653.426 420.437C644.727 412.713 633.732 408.545 622.196 408.545ZM622.096 510.002C593.595 510.002 569.607 487.703 567.899 458.889C566.126 428.984 589.013 403.214 618.918 401.441C633.412 400.588 647.357 405.415 658.207 415.052C669.058 424.687 675.506 437.973 676.365 452.458C678.138 482.363 655.252 508.133 625.346 509.905C624.258 509.972 623.173 510.002 622.096 510.002Z" fill="#371A45"/>
<path d="M624.351 493.159C603.649 494.383 585.873 478.596 584.649 457.893C583.416 437.192 599.203 419.416 619.913 418.192C640.617 416.958 658.393 432.745 659.617 453.447C660.85 474.159 645.054 491.935 624.351 493.159ZM672.767 452.674C671.11 424.708 647.096 403.375 619.13 405.032C591.166 406.687 569.833 430.712 571.49 458.677C573.154 486.643 597.17 507.964 625.134 506.309C653.101 504.652 674.431 480.639 672.767 452.674Z" fill="#898989"/>
<path d="M622.191 421.723C621.506 421.723 620.819 421.743 620.128 421.785C611.069 422.32 602.767 426.349 596.744 433.128C590.723 439.909 587.703 448.627 588.243 457.681C588.778 466.732 592.807 475.035 599.588 481.058C606.367 487.079 615.094 490.098 624.139 489.566C633.193 489.029 641.495 485.002 647.518 478.221C653.541 471.437 656.563 462.717 656.024 453.661C655.487 444.607 651.46 436.306 644.678 430.286C638.416 424.724 630.498 421.723 622.191 421.723ZM622.08 496.827C612.003 496.827 602.4 493.187 594.805 486.44C586.588 479.143 581.704 469.079 581.054 458.107C580.401 447.135 584.062 436.565 591.361 428.347C598.659 420.13 608.725 415.246 619.701 414.596C630.673 413.95 641.242 417.604 649.459 424.901C657.679 432.199 662.563 442.263 663.211 453.234C663.865 464.208 660.203 474.782 652.903 483.001C645.603 491.221 635.537 496.105 624.565 496.753C623.733 496.801 622.903 496.827 622.08 496.827ZM622.191 408.543C621.246 408.543 620.296 408.57 619.344 408.626C606.78 409.37 595.255 414.964 586.894 424.378C578.534 433.794 574.339 445.898 575.084 458.464C576.573 483.455 597.387 502.797 622.106 502.799C623.039 502.799 623.977 502.771 624.922 502.716C637.487 501.971 649.012 496.377 657.37 486.966C665.73 477.554 669.92 465.451 669.174 452.886H669.171C668.429 440.319 662.835 428.797 653.424 420.437C644.725 412.71 633.727 408.543 622.191 408.543ZM622.101 510C593.604 510 569.611 487.701 567.897 458.891C567.037 444.404 571.873 430.449 581.51 419.598C591.147 408.746 604.433 402.296 618.918 401.439C633.405 400.581 647.357 405.415 658.206 415.052C669.056 424.689 675.503 437.975 676.361 452.46C677.223 466.945 672.391 480.897 662.754 491.749C653.117 502.598 639.833 509.045 625.346 509.903C624.258 509.967 623.175 510 622.101 510Z" fill="#371A45"/>
<path d="M622.191 421.723C621.506 421.723 620.819 421.743 620.128 421.785C611.069 422.32 602.767 426.349 596.744 433.128C590.723 439.909 587.703 448.627 588.243 457.681C588.778 466.733 592.807 475.035 599.588 481.058C606.367 487.079 615.094 490.098 624.139 489.566C633.193 489.029 641.495 485.002 647.518 478.221C653.541 471.437 656.563 462.717 656.024 453.661C655.487 444.607 651.46 436.307 644.678 430.286C638.416 424.724 630.498 421.723 622.191 421.723ZM622.08 496.827C612.003 496.827 602.4 493.187 594.805 486.44C586.588 479.143 581.704 469.079 581.054 458.107C580.401 447.135 584.062 436.565 591.361 428.347C598.659 420.13 608.725 415.246 619.701 414.596C630.673 413.95 641.242 417.604 649.459 424.901C657.679 432.199 662.563 442.263 663.211 453.234C663.865 464.209 660.203 474.782 652.903 483.001C645.6 491.221 635.537 496.105 624.563 496.753C623.733 496.801 622.903 496.827 622.08 496.827Z" fill="#371A45"/>
<path d="M644.948 687.842C644.948 728.643 621.963 761.719 621.963 761.719C621.963 761.719 598.977 728.643 598.977 687.842C598.977 647.041 621.963 613.964 621.963 613.964C621.963 613.964 644.948 647.041 644.948 687.842Z" fill="#22A7F0"/>
<path d="M644.948 687.842C644.948 728.643 621.963 761.719 621.963 761.719C621.963 761.719 598.977 728.643 598.977 687.842C598.977 647.041 621.963 613.964 621.963 613.964C621.963 613.964 644.948 647.041 644.948 687.842Z" fill="#F73939"/>
<path d="M604.571 651.746L604.567 651.743C606.397 645.688 608.499 640.161 610.594 635.316C608.499 640.163 606.399 645.69 604.571 651.746ZM623.06 615.638C622.398 614.596 622.004 614.022 621.965 613.969C621.967 613.969 621.967 613.967 621.967 613.967C621.967 613.967 622.366 614.543 623.06 615.638Z" fill="#EDEBEF"/>
<path d="M621.967 689.349C621.967 689.349 620.427 656.137 619.699 628.882C614.451 634.085 606.565 653.004 606.565 653.004L604.571 651.746C606.399 645.69 608.499 640.163 610.594 635.316C613.943 627.573 617.276 621.571 619.464 617.929C620.988 615.389 621.946 613.997 621.965 613.969C622.004 614.022 622.398 614.596 623.06 615.638C623.442 616.242 623.915 617.002 624.459 617.911C628.006 623.823 634.603 636.002 639.356 651.753L637.358 653.004C637.358 653.004 629.472 634.066 624.226 628.873C623.505 656.127 621.967 689.349 621.967 689.349Z" fill="#FDC3C3"/>
<path d="M644.946 687.837C644.946 728.647 621.967 761.715 621.967 761.715C621.967 761.715 598.977 728.647 598.977 687.837C598.977 680.961 599.627 674.3 600.715 667.991C606.079 699.15 612.521 731.284 621.967 731.284C631.411 731.284 637.853 699.15 643.208 667.991C644.298 674.3 644.946 680.961 644.946 687.837Z" fill="#D82345"/>
<path d="M621.965 620.778C615.894 631.187 602.577 657.478 602.577 687.842C602.577 718.199 615.889 744.485 621.963 754.899C628.039 744.485 641.348 718.199 641.348 687.842C641.348 657.421 628.041 631.176 621.965 620.778ZM621.963 765.32C620.785 765.32 619.681 764.741 619.008 763.773C618.042 762.386 595.377 729.295 595.377 687.842C595.377 646.389 618.042 613.298 619.008 611.911C619.681 610.94 620.785 610.364 621.963 610.364C623.143 610.364 624.247 610.94 624.92 611.911C625.883 613.298 648.548 646.389 648.548 687.842C648.548 729.295 625.883 762.386 624.92 763.773C624.247 764.741 623.143 765.32 621.963 765.32Z" fill="#371A45"/>
<path d="M491.253 682.149C487.865 655.676 505.231 640.64 505.231 640.64C502.688 662.77 491.253 682.149 491.253 682.149Z" fill="#FDC3C3"/>
<path d="M369.962 583.573C369.962 583.573 405.549 602.926 420.831 587.929C444.402 564.796 416.29 518.332 416.29 518.332L369.962 583.573Z" fill="#D8D8D8"/>
<path d="M375.323 582.241C386.574 587.528 408.561 594.925 418.309 585.362C435.318 568.669 422.011 537.249 415.88 525.132L375.323 582.241ZM404.493 597.198C387.752 597.198 369.33 587.33 368.242 586.735C367.336 586.244 366.686 585.389 366.454 584.387C366.221 583.384 366.43 582.328 367.025 581.489L413.356 516.249C414.059 515.26 415.216 514.709 416.424 514.734C417.636 514.78 418.742 515.433 419.372 516.47C420.58 518.466 448.668 565.656 423.352 590.499C418.314 595.444 411.553 597.198 404.493 597.198Z" fill="#371A45"/>
<path d="M273.447 500.351C267.424 509.278 259.08 519.035 252.501 526.31C246.524 532.907 242.007 537.461 242.007 537.461C242.007 537.461 163.402 542.961 141.773 485.057C139.253 478.317 137.678 471.52 136.832 464.861C132.106 428.156 149.1 395.294 149.1 395.294L191.557 415.301L203.807 456.021C203.807 456.021 212.916 460.378 228.703 465.49C240.916 469.459 257.127 473.88 276.217 477.093C285.156 478.596 281.258 488.766 273.447 500.351Z" fill="white"/>
<path d="M227.309 533.64C204.204 532.047 160.041 523.673 145.144 483.801C144.452 481.95 143.837 480.097 143.289 478.239C153.938 496.013 178.391 522.58 229.952 524.634C229.077 527.451 228.186 530.468 227.309 533.64Z" fill="#C5BDC9"/>
<path d="M247.294 485.839C241.522 481.275 236.41 476.075 232.104 470.365C237.314 471.969 243.127 473.611 249.482 475.194C250.602 475.814 251.729 476.416 252.863 477.001L247.299 485.832C247.299 485.834 247.299 485.832 247.299 485.832L247.294 485.839Z" fill="#C5BDC9"/>
<path d="M361.159 491.799C346.262 501.035 328.08 506.461 308.469 506.461C284.958 506.461 263.519 498.659 247.299 485.832L272.61 445.662L360.772 491.124C360.898 491.35 361.032 491.576 361.159 491.799Z" fill="#D8D8D8"/>
<path d="M236.44 541.212C228.836 541.212 214.668 540.543 199.087 536.456C168.656 528.474 147.671 511.138 138.399 486.323C121.634 441.451 144.902 395.568 145.901 393.636C146.814 391.871 148.986 391.179 150.753 392.092C152.519 393.005 153.21 395.178 152.297 396.944C152.01 397.502 129.537 442.027 145.144 483.801C164.069 534.453 230.225 534.274 240.437 533.932C260.191 513.867 279.804 488.526 277.63 481.761C277.552 481.514 277.367 480.936 275.62 480.643C231.876 473.274 203.439 459.836 202.25 459.267C201.335 458.831 200.648 458.027 200.355 457.056L188.105 416.341C187.532 414.439 188.612 412.429 190.516 411.857C192.419 411.288 194.427 412.364 195.001 414.268L206.78 453.417C213.051 456.199 239.519 467.258 276.817 473.541C282.095 474.431 283.888 477.695 284.488 479.56C285.884 483.909 285.479 492.452 265.909 516.306C255.624 528.841 244.669 539.893 244.56 540.002C243.945 540.622 243.127 540.995 242.258 541.055C242 541.073 239.897 541.212 236.44 541.212Z" fill="#371A45"/>
<path d="M387.099 593.141C386.182 609.898 381.646 625.084 371.753 636.074C337.307 674.346 245.058 666.866 226.552 618.595C223.519 610.691 222.403 599.881 222.618 587.757C223.15 557.838 231.809 519.881 239.865 497.633L272.61 445.663L360.772 491.124C374.904 515.633 389.026 557.856 387.099 593.141Z" fill="white"/>
<path d="M247.299 485.832C247.299 485.832 247.299 485.834 247.299 485.832L252.863 477.001L247.299 485.832Z" fill="#A9A1AD"/>
<path d="M308.469 506.461C284.96 506.461 263.517 498.657 247.299 485.832L252.863 477.001C271.759 486.761 292.689 491.995 314.31 492.24C314.868 492.247 315.425 492.251 315.983 492.251C318.592 492.251 321.22 492.177 323.857 492.028C324.217 492.009 324.572 491.986 324.931 491.963L320.4 505.784C316.495 506.231 312.512 506.461 308.469 506.461Z" fill="#C5BDC9"/>
<path d="M306.037 660.461C305.979 660.461 305.917 660.461 305.86 660.461C303.453 660.456 301.047 660.382 298.645 660.24C298.343 660.221 298.043 660.203 297.741 660.182C295.34 660.018 292.945 659.788 290.568 659.486C264.602 656.187 240.55 644.549 229.561 624.996C230.289 624.604 230.777 623.763 230.407 622.786C228.9 619.029 227.886 615.151 227.303 611.164C227.098 609.829 226.927 608.495 226.785 607.158C232.969 608.575 247.174 611.438 261.122 611.438C267.742 611.438 274.302 610.793 279.919 609.043L279.968 611.431C279.97 611.54 279.974 611.646 279.977 611.752L280.034 614.495C280.131 619.319 282.113 623.83 285.617 627.193C289.026 630.464 293.461 632.255 298.14 632.255C298.269 632.255 298.398 632.252 298.527 632.25L301.372 632.192C301.446 632.19 301.522 632.19 301.595 632.188L351.969 631.153L359.605 630.994L362.941 630.927C367.447 630.832 371.6 629.334 374.989 626.856C373.647 629.585 372.131 632.259 370.416 634.873C369.959 635.535 369.985 636.447 370.533 637.088C370.579 637.139 370.625 637.19 370.676 637.236C355.79 652.838 331.039 660.461 306.037 660.461Z" fill="#C5BDC9"/>
<path d="M227.197 624.406C211.261 598.645 221.485 551.755 230.067 524.268C230.756 522.209 233.923 522.919 233.563 525.132C230.724 541.516 228.334 558.001 227.153 574.542C226.337 586.798 225.445 599.044 227.303 611.164C227.886 615.151 228.9 619.028 230.407 622.786C231.159 624.777 228.36 626.206 227.197 624.406Z" fill="#371A45"/>
<path d="M333.169 659.175C317.424 665.686 298.569 665.513 282.551 660.023C280.636 659.313 281.203 656.425 283.238 656.489C295.134 656.953 308.192 657.135 320.005 656.372C324.083 656.146 328.163 655.846 332.351 655.671C334.345 655.581 334.99 658.379 333.169 659.175Z" fill="#371A45"/>
<path d="M363.893 489.324C384.094 524.019 400.699 582.434 384.739 621.048C382.021 627.17 378.17 632.925 373.092 637.282C372.331 637.934 371.186 637.849 370.533 637.088C369.985 636.447 369.959 635.535 370.416 634.873C391.375 602.882 383.404 561.611 372.451 527.356C368.463 515.465 363.611 503.82 357.641 492.899C355.518 488.791 361.355 485.357 363.893 489.324Z" fill="#371A45"/>
<path d="M389.96 592.122C389.96 598.726 384.605 604.078 378.004 604.078C371.4 604.078 366.048 598.726 366.048 592.122C366.048 585.521 371.4 580.166 378.004 580.166C384.605 580.166 389.96 585.521 389.96 592.122Z" fill="white"/>
<path d="M378.004 583.767C373.396 583.767 369.648 587.515 369.648 592.122C369.648 596.73 373.396 600.478 378.004 600.478C382.611 600.478 386.359 596.73 386.359 592.122C386.359 587.515 382.611 583.767 378.004 583.767ZM378.004 607.679C369.427 607.679 362.447 600.699 362.447 592.122C362.447 583.545 369.427 576.566 378.004 576.566C386.581 576.566 393.56 583.545 393.56 592.122C393.56 600.699 386.581 607.679 378.004 607.679Z" fill="#371A45"/>
<path d="M365.93 627.262L298.456 628.647C290.469 628.813 283.794 622.412 283.628 614.416L282.893 578.509C282.747 571.509 287.641 565.525 294.226 564.036C295.16 563.819 296.128 563.704 297.124 563.681L364.589 562.295C372.587 562.13 379.26 568.531 379.417 576.527L380.007 604.966L380.161 612.434C380.327 620.432 373.917 627.096 365.93 627.262Z" fill="white"/>
<path d="M365.93 627.262L298.456 628.647C290.469 628.813 283.794 622.412 283.628 614.416L282.893 578.509C282.747 571.509 287.641 565.525 294.226 564.036C295.16 563.819 296.128 563.704 297.124 563.681L364.589 562.295C372.587 562.13 379.26 568.531 379.417 576.527L380.007 604.966L380.161 612.434C380.327 620.432 373.917 627.096 365.93 627.262Z" fill="white"/>
<path d="M365.93 627.262L298.456 628.647C290.469 628.813 283.794 622.412 283.628 614.416L282.893 578.509C282.747 571.509 287.641 565.525 294.226 564.036C295.16 563.819 296.128 563.704 297.124 563.681L364.589 562.295C372.587 562.13 379.26 568.531 379.417 576.527L380.007 604.966L380.161 612.434C380.327 620.432 373.917 627.096 365.93 627.262Z" fill="white"/>
<path d="M315.464 624.438C312.611 624.438 309.937 623.376 307.865 621.386C305.749 619.353 304.55 616.636 304.493 613.732L304.195 599.24H305.924C306.443 601.792 307.514 604.138 309.057 606.049C311.368 608.912 314.455 610.484 317.763 610.484C317.816 610.484 317.869 610.484 317.919 610.484L323.175 610.405C324.814 610.38 326.289 609.638 327.273 608.455C332.95 610.083 339.856 610.892 348.299 610.892C348.486 610.892 348.673 610.892 348.859 610.892C361.523 610.834 370.326 609.108 376.441 606.674L376.499 609.447C376.655 617.164 370.508 623.569 362.793 623.728L359.384 623.798C356.901 623.834 315.66 624.436 315.64 624.438C315.58 624.438 315.522 624.438 315.464 624.438Z" fill="#C5BDC9"/>
<path d="M361.896 565.954C361.8 565.954 361.703 565.954 361.606 565.956L300.261 567.217C296.543 567.293 293.065 568.826 290.464 571.534C287.867 574.24 286.479 577.78 286.555 581.496L287.166 611.284C287.325 618.999 293.708 625.125 301.448 624.989L362.793 623.728C370.508 623.569 376.655 617.164 376.499 609.447L375.885 579.661C375.809 575.943 374.277 572.463 371.568 569.865C368.934 567.337 365.508 565.954 361.896 565.954ZM301.522 628.59H301.533H301.522ZM301.155 632.192C289.667 632.192 280.205 622.97 279.967 611.431L279.357 581.646C279.115 569.96 288.427 560.258 300.111 560.018L361.456 558.757C367.108 558.628 372.46 560.742 376.554 564.672C380.65 568.602 382.969 573.871 383.084 579.512L383.697 609.299C383.937 620.983 374.625 630.685 362.941 630.927L301.595 632.188C301.448 632.19 301.303 632.192 301.155 632.192Z" fill="#371A45"/>
<path d="M342.06 627.504L341.928 627.762L298.451 628.652C292.597 628.765 287.454 625.367 285.062 620.381C284.183 618.574 283.676 616.557 283.637 614.418L283.303 598.466L283.192 593.201L283.008 583.96L282.895 578.513C282.731 570.515 289.135 563.849 297.121 563.683L311.701 563.39C305.007 564.794 300.014 570.824 300.155 577.889L300.369 588.547L300.554 597.288L300.885 613.815C301.058 621.792 307.731 628.2 315.716 628.043L342.06 627.504Z" fill="white"/>
<path d="M298.177 625.054C295.337 625.054 292.668 623.98 290.603 621.997C288.487 619.967 287.29 617.251 287.233 614.347L287.014 603.679C288.646 601.121 290.04 597.509 289.019 593.353C289.019 593.351 289.017 593.348 289.017 593.346C289.017 593.342 289.015 593.337 289.015 593.332C288.627 591.763 287.894 590.117 286.7 588.42L286.608 583.946C288.634 584.313 290.644 585.445 292.009 588.098C292.311 588.685 292.613 589.195 292.915 589.633L291.315 594.517C290.955 595.614 291.144 596.817 291.82 597.751C292.497 598.685 293.581 599.24 294.736 599.24H296.992L297.294 613.879C297.375 617.98 298.82 621.854 301.402 624.989L298.377 625.051C298.311 625.051 298.244 625.054 298.177 625.054Z" fill="#C5BDC9"/>
<path d="M299.823 567.224L297.2 567.277C294.295 567.339 291.578 568.537 289.547 570.651C287.519 572.767 286.433 575.528 286.495 578.43L287.233 614.347C287.29 617.251 288.487 619.967 290.603 621.997C292.716 624.026 295.462 625.102 298.378 625.051L301.402 624.989C298.82 621.854 297.375 617.98 297.294 613.879L296.557 577.969C296.476 574.014 297.681 570.285 299.823 567.224ZM298.14 632.255C293.461 632.255 289.026 630.464 285.617 627.193C282.113 623.83 280.131 619.319 280.034 614.494L279.297 578.583C279.193 573.756 280.991 569.169 284.354 565.665C287.715 562.164 292.223 560.179 297.05 560.078L311.627 559.781L312.44 566.903C307.3 567.986 303.647 572.578 303.755 577.822L304.493 613.732C304.55 616.636 305.749 619.353 307.865 621.386C309.979 623.415 312.719 624.482 315.64 624.438C315.663 624.436 358.298 623.814 359.476 623.795L363.088 623.721L363.155 627.343C363.194 629.963 361.382 630.703 359.603 630.922L359.605 630.994L298.527 632.25C298.398 632.252 298.269 632.255 298.14 632.255Z" fill="#371A45"/>
<path d="M327.135 595.594C327.153 596.924 325.445 607.672 325.445 607.672C325.445 607.672 322.05 607.72 317.88 607.782C312.669 607.861 308.365 602.529 308.268 595.875C308.169 589.22 312.314 583.762 317.523 583.686C321.038 583.633 325.088 583.573 325.088 583.573C325.088 583.573 327.102 593.431 327.135 595.594Z" fill="#22A7F0"/>
<path d="M327.135 595.594C327.153 596.924 325.445 607.672 325.445 607.672C325.445 607.672 322.05 607.72 317.88 607.782C312.669 607.861 308.365 602.529 308.268 595.875C308.169 589.22 312.314 583.762 317.523 583.686C321.038 583.633 325.088 583.573 325.088 583.573C325.088 583.573 327.102 593.431 327.135 595.594Z" fill="#1C7AEA"/>
<path d="M322.887 586.341L317.562 586.385C315.891 586.41 314.291 587.321 313.056 588.946C311.671 590.769 310.928 593.217 310.967 595.833C311.007 598.452 311.82 600.874 313.259 602.658C314.54 604.246 316.186 605.104 317.839 605.083L323.094 605.005C324.069 598.922 324.419 596.156 324.433 595.617C324.417 594.867 324.002 592.046 322.887 586.341ZM317.763 610.484C314.455 610.484 311.369 608.912 309.057 606.049C306.862 603.331 305.625 599.731 305.567 595.914C305.512 592.095 306.643 588.462 308.755 585.68C311.016 582.702 314.116 581.035 317.484 580.987L322.764 580.908C322.792 580.908 322.817 580.908 322.845 580.908C325.447 580.908 327.686 582.745 328.186 585.304C329.26 590.795 329.815 594.243 329.834 595.554C329.841 595.944 329.852 596.857 328.472 605.8C328.066 608.428 325.839 610.364 323.175 610.405L317.919 610.484C317.869 610.484 317.816 610.484 317.763 610.484Z" fill="#371A45"/>
<path d="M334.7 595.483C334.799 602.137 330.654 607.593 325.445 607.672C320.236 607.748 315.932 602.416 315.833 595.762C315.734 589.107 319.879 583.651 325.088 583.573C330.299 583.497 334.601 588.828 334.7 595.483Z" fill="#22A7F0"/>
<path d="M315.836 595.766C315.935 602.414 320.236 607.748 325.448 607.672C330.659 607.591 334.799 602.137 334.7 595.481C334.686 594.432 334.566 593.411 334.354 592.447C333.045 596.956 329.673 600.178 325.676 600.238C321.292 600.307 317.544 596.539 316.412 591.371C316.02 592.733 315.815 594.215 315.836 595.766Z" fill="#1C7AEA"/>
<path d="M325.196 586.272C325.173 586.272 325.15 586.274 325.127 586.274C321.478 586.327 318.459 590.656 318.535 595.723C318.608 600.757 321.716 604.973 325.337 604.973C325.36 604.973 325.383 604.97 325.406 604.97C329.055 604.917 332.074 600.591 332 595.522C331.927 590.488 328.817 586.272 325.196 586.272ZM325.337 610.373C318.712 610.373 313.254 603.873 313.134 595.803C313.014 587.671 318.357 580.973 325.049 580.874C325.097 580.871 325.148 580.871 325.196 580.871C331.821 580.871 337.281 587.372 337.401 595.441V595.444C337.521 603.573 332.176 610.272 325.487 610.371C325.436 610.373 325.385 610.373 325.337 610.373Z" fill="#371A45"/>
<path d="M344.95 630.134H344.941C343.449 630.129 342.244 628.917 342.249 627.426L342.306 609.253C342.32 604.122 344.89 599.374 349.177 596.555C352.015 594.69 353.672 591.548 353.615 588.155L353.177 562.542C353.151 561.051 354.341 559.822 355.832 559.795C357.305 559.772 358.552 560.959 358.577 562.45L359.015 588.063C359.105 593.316 356.537 598.177 352.146 601.068C349.376 602.889 347.716 605.955 347.704 609.269L347.649 627.442C347.645 628.931 346.437 630.134 344.95 630.134Z" fill="#371A45"/>
<path d="M225.655 579.426C225.655 579.426 216.651 582.28 215.507 590.204C213.906 601.301 223.58 606.379 223.58 606.379C223.58 606.379 262.869 616.839 283.589 607.674C283.589 607.674 297.043 596.663 282.89 584.271C282.89 584.271 252.347 587.27 225.655 579.426Z" fill="white"/>
<path d="M217.159 599.846C216.455 598.562 215.882 597.083 215.575 595.398C215.882 597.083 216.455 598.562 217.159 599.846H217.159Z" fill="#371A45"/>
<path d="M219.987 603.596C219.01 602.617 217.993 601.37 217.159 599.846H217.159C217.993 601.367 219.01 602.615 219.986 603.596H219.987Z" fill="#371A45"/>
<path d="M261.122 611.438C247.174 611.438 232.969 608.575 226.785 607.158C226.785 607.158 226.785 607.158 226.785 607.155C232.969 608.575 247.174 611.436 261.12 611.436C267.742 611.436 274.3 610.793 279.919 609.041V609.043C274.302 610.793 267.742 611.438 261.122 611.438Z" fill="#9C8EA3"/>
<path d="M226.785 607.158C224.748 606.69 223.582 606.381 223.582 606.381C223.582 606.381 221.858 605.475 219.987 603.596H219.987C221.858 605.475 223.58 606.379 223.58 606.379C223.58 606.379 224.747 606.69 226.785 607.155C226.785 607.158 226.785 607.158 226.785 607.158Z" fill="#371A45"/>
<path d="M279.919 609.043H279.922V609.04H279.919V609.043Z" fill="#371A45"/>
<path d="M287.014 603.679V603.673C288.644 601.116 290.038 597.507 289.019 593.353C290.04 597.509 288.646 601.121 287.014 603.679Z" fill="#9C8EA3"/>
<path d="M279.921 609.043V609.041C281.196 608.644 282.422 608.19 283.589 607.674C283.589 607.674 285.414 606.18 287.014 603.673V603.679C285.414 606.185 283.589 607.676 283.589 607.676C282.422 608.193 281.196 608.647 279.921 609.043Z" fill="#371A45"/>
<path d="M289.017 593.346C289.017 593.341 289.015 593.337 289.015 593.332C289.015 593.337 289.017 593.341 289.017 593.346Z" fill="#9C8EA3"/>
<path d="M261.12 611.436C247.174 611.436 232.969 608.575 226.785 607.155C224.747 606.69 223.58 606.379 223.58 606.379C223.58 606.379 221.858 605.475 219.987 603.596C219.01 602.615 217.993 601.368 217.159 599.846C216.456 598.562 215.883 597.083 215.575 595.398C215.29 593.842 215.232 592.113 215.508 590.204C215.751 588.54 216.336 587.1 217.119 585.857C217.894 588.492 219.309 590.552 220.713 592.069C222.568 594.075 225.015 595.423 227.676 596.038C233.697 597.433 248.133 600.388 262.3 600.388C268.848 600.388 275.339 599.759 280.917 598.048C284.107 597.071 286.85 594.932 288.544 592.055L288.595 591.97C288.763 592.429 288.904 592.883 289.015 593.332C289.015 593.337 289.017 593.342 289.017 593.346C289.017 593.348 289.019 593.351 289.019 593.353C290.038 597.507 288.644 601.116 287.014 603.673C285.414 606.18 283.589 607.674 283.589 607.674C282.422 608.19 281.196 608.644 279.921 609.041H279.919C274.299 610.793 267.742 611.436 261.12 611.436Z" fill="#C5BDC9"/>
<path d="M224.951 603.013C229.246 604.094 263.319 612.268 281.625 604.599C282.632 603.638 285.719 600.369 285.765 596.292C285.797 593.533 284.4 590.746 281.609 587.992C274.917 588.496 249.346 589.84 225.835 583.223C223.929 584.073 219.691 586.42 219.071 590.718C217.991 598.2 223.573 602.158 224.951 603.013ZM261.009 615.039C242.419 615.039 223.784 610.159 222.654 609.857L222.264 609.753L221.907 609.566C221.419 609.311 210.001 603.152 211.944 589.69C213.393 579.648 224.112 576.139 224.568 575.994L225.615 575.662L226.67 575.971C252.349 583.52 282.238 580.717 282.538 580.687L284.089 580.537L285.262 581.563C290.462 586.115 293.053 591.129 292.965 596.458C292.827 604.673 286.154 610.228 285.868 610.461L285.493 610.77L285.046 610.966C278.204 613.994 269.611 615.039 261.009 615.039Z" fill="#371A45"/>
<path d="M462.327 361.516C461.675 377.05 458.651 392 451.715 397.767C446.732 401.909 409.412 405.901 409.412 405.901L428.121 306.487C428.121 306.487 430.655 306.922 434.246 307.741C441.707 309.451 453.746 312.86 456.927 317.574C460.387 322.695 463.118 342.546 462.327 361.516Z" fill="white"/>
<path d="M447.88 395.738C449.731 389.875 451.185 383.882 452.232 377.792C452.838 374.77 453.317 371.72 453.668 368.657C455.24 368.496 456.886 367.721 458.448 366.384C457.494 379.083 454.797 390.515 449.422 394.987C449.111 395.224 448.588 395.476 447.88 395.738Z" fill="#C5BDC9"/>
<path d="M430.996 310.696L413.851 401.78C429.845 399.876 446.847 396.949 449.422 394.987C463.026 383.672 459.474 327.778 453.947 319.593C451.602 316.121 440.107 312.579 430.996 310.696ZM404.977 410.002L425.242 302.345L428.73 302.939C433.006 303.668 454.603 307.697 459.914 315.564C464.095 321.757 466.2 341.223 466.055 356.392C465.933 369.24 464.206 392.057 454.016 400.531C448.617 405.021 418.804 408.52 409.797 409.486L404.977 410.002Z" fill="#371944"/>
<path d="M181.728 361.668C185.916 435.864 249.458 492.618 323.654 488.429C397.85 484.241 454.603 420.699 450.415 346.501C446.227 272.306 382.685 215.554 308.49 219.74C234.292 223.928 177.54 287.473 181.728 361.668Z" fill="white"/>
<path d="M189.561 399.984C209.272 454.415 262.885 491.862 323.65 488.432C397.845 484.244 454.601 420.697 450.413 346.501C448.776 317.53 438.095 291.211 421.262 270.16C413.579 337.724 331.546 394.482 228.442 400.302C215.194 401.049 202.185 400.92 189.561 399.984Z" fill="#D8D8D8"/>
<path d="M316.154 223.126C313.676 223.126 311.196 223.195 308.692 223.336C236.597 227.404 181.253 289.37 185.323 361.465C189.251 431.058 247.133 485.039 315.99 485.046C318.468 485.046 320.948 484.977 323.451 484.834C395.547 480.765 450.89 418.8 446.822 346.707C442.894 277.114 385.011 223.126 316.154 223.126ZM315.896 492.249C281.929 492.249 249.576 479.935 224.04 457.128C196.516 432.545 180.213 398.717 178.133 361.871C176.054 325.026 188.447 289.577 213.029 262.053C237.611 234.529 271.441 218.226 308.287 216.147C345.125 214.075 380.578 226.459 408.105 251.042C435.626 275.625 451.93 309.455 454.011 346.299C456.09 383.144 443.696 418.593 419.116 446.117C394.533 473.641 360.702 489.944 323.857 492.023C321.197 492.173 318.539 492.249 315.896 492.249Z" fill="#371A45"/>
<path d="M185.319 361.468C187.29 396.391 202.745 428.456 228.836 451.759C254.928 475.063 288.535 486.818 323.451 484.838C340.317 483.886 356.556 479.795 371.713 472.675C410.105 454.643 437.491 419.012 444.971 377.361C446.653 368.019 447.31 358.418 446.921 348.825C446.893 348.124 446.863 347.41 446.824 346.707C444.736 309.707 426.96 275.173 398.053 251.964C372.799 231.673 341.059 221.506 308.69 223.336C236.599 227.404 181.257 289.377 185.319 361.468ZM315.983 492.251C243.334 492.251 182.274 435.297 178.129 361.874C173.836 285.813 232.224 220.439 308.284 216.145C342.435 214.218 375.92 224.945 402.561 246.349C433.056 270.835 451.81 307.266 454.013 346.301C454.055 347.041 454.085 347.79 454.117 348.53C454.527 358.651 453.834 368.779 452.059 378.635C444.166 422.578 415.276 460.17 374.774 479.193C358.778 486.705 341.647 491.025 323.857 492.028C321.22 492.177 318.592 492.251 315.983 492.251Z" fill="#371A45"/>
<path d="M329.691 233.992C326.996 233.992 324.29 234.068 321.58 234.223C286.396 236.207 254.05 250.862 230.504 275.484C207.023 300.037 195.107 331.577 196.954 364.289C200.63 429.401 258.353 479.737 327.377 479.742C330.046 479.742 332.724 479.668 335.423 479.516C347.923 478.811 360.195 476.478 371.905 472.587C410.195 454.525 437.503 418.943 444.971 377.361C446.849 368.385 447.532 359.271 447.02 350.173C446.997 349.781 446.979 349.424 446.939 349.06C446.93 348.982 446.926 348.906 446.923 348.827C446.893 348.124 446.863 347.41 446.824 346.707C444.74 309.797 427.047 275.344 398.265 252.135C377.575 240.202 354.022 233.992 329.691 233.992ZM327.374 486.943C254.559 486.943 193.657 433.637 189.765 364.695C187.804 329.97 200.425 296.52 225.301 270.506C250.113 244.56 284.16 229.122 321.172 227.033C349.873 225.415 377.854 231.987 402.112 246.04C402.268 246.132 402.418 246.234 402.561 246.347C433.056 270.835 451.81 307.266 454.013 346.301C454.053 347.004 454.083 347.716 454.112 348.419C454.156 348.859 454.182 349.293 454.207 349.735C454.758 359.497 454.027 369.243 452.04 378.737C444.166 422.578 415.276 460.17 374.774 479.193C374.648 479.253 374.519 479.306 374.385 479.35C362.009 483.485 349.039 485.958 335.831 486.705C332.996 486.864 330.177 486.943 327.374 486.943Z" fill="#371A45"/>
<path d="M206.389 363.757C209.945 426.752 267.502 474.747 334.939 470.939C392.106 467.712 438.028 428.301 448.516 377.997C450.408 368.957 451.155 359.566 450.614 349.97C450.588 349.537 450.565 349.113 450.519 348.68C446.266 286.318 389.036 239.017 322.064 242.797C254.624 246.605 202.833 300.759 206.389 363.757Z" fill="#371A45"/>
<path d="M206.389 363.757C209.945 426.752 267.502 474.747 334.94 470.939C385.659 468.076 427.529 436.731 443.643 394.556C420.895 421.536 386.408 439.69 346.969 441.917C277.123 445.858 217.068 398.431 208.74 334.557C206.654 343.959 205.824 353.748 206.389 363.757Z" fill="#220F2D"/>
<path d="M419.768 378.458C419.768 378.458 420.317 365.723 411.839 341.926C409.048 334.103 405.532 325.351 398.032 314.236C392.359 305.832 384.529 299.039 375.314 294.639C375.268 294.616 375.222 294.595 375.176 294.572C358.868 286.8 340.49 284.361 323.836 284.361C295.754 284.361 272.585 291.301 272.585 291.301C269.929 289.651 299.576 261.922 344.208 261.922C347.926 261.922 351.754 262.115 355.671 262.533C382.907 265.428 401.946 285.576 413.217 302.192C416.958 307.699 419.837 312.818 421.877 316.795L421.896 316.82C422.11 317.279 422.315 317.735 422.513 318.203C423.375 320.224 424.152 322.22 424.832 324.18C431.696 344.07 429.034 361.062 419.768 378.458Z" fill="#9B8DA2"/>
<path d="M250.381 381.019C240.778 381.019 232.538 372.483 231.675 361.325C230.774 349.666 238.272 339.559 248.419 338.747C248.855 338.71 249.288 338.694 249.717 338.694C259.319 338.694 267.562 347.227 268.424 358.388C269.323 370.047 261.827 380.154 251.678 380.966C251.245 381 250.812 381.019 250.381 381.019Z" fill="#9B8DA2"/>
<path d="M252.96 411.862C252.951 411.862 252.944 411.862 252.935 411.862C252.789 411.862 252.646 411.855 252.506 411.846C250.196 409.96 247.958 407.996 245.796 405.963C245.533 405.062 245.393 404.096 245.402 403.089C245.443 398.269 248.871 394.372 253.061 394.372C253.071 394.372 253.077 394.372 253.087 394.372C257.289 394.385 260.661 398.313 260.619 403.144C260.578 407.964 257.15 411.862 252.96 411.862Z" fill="#9B8DA2"/>
<path d="M252.506 411.846C249.369 411.634 246.757 409.237 245.796 405.963C247.958 407.996 250.196 409.96 252.506 411.846Z" fill="#918796"/>
<path d="M175.125 343.549L184.292 395.764L190.002 428.287L208.407 428.124L210.147 428.108C218.084 426.547 220.895 404.633 216.427 379.205C216.33 378.631 216.219 378.045 216.11 377.474C211.509 352.909 201.726 334.485 193.974 336.021L192.347 336.668L175.125 343.549Z" fill="white"/>
<path d="M190.002 428.287L184.292 395.764L198.16 376.95C198.16 376.95 202.321 387.957 207.172 387.957C207.575 387.957 207.983 387.881 208.394 387.715C213.455 385.696 214.722 374.514 214.722 374.514L216.11 377.474C216.219 378.045 216.33 378.631 216.427 379.205C217.867 387.399 218.551 395.229 218.551 402.13C218.551 403.972 218.502 405.749 218.406 407.448C218.086 413.102 217.242 417.901 215.924 421.458C214.774 424.563 213.261 426.72 211.421 427.66C211.012 427.87 210.588 428.02 210.147 428.108L208.407 428.124L207.991 428.128L199.5 428.204H199.405L199.195 428.207L191.695 428.274L190.002 428.287Z" fill="#C5BDC9"/>
<path d="M179.176 345.808L193.022 424.666L209.674 424.516C213.332 423.17 217.619 406.823 212.88 379.832C209.151 358.596 201.872 343.837 196.608 340.23C196.207 339.955 195.489 339.529 194.891 339.526L179.176 345.808ZM190.003 431.895C188.256 431.895 186.759 430.639 186.457 428.917L171.578 344.173C171.283 342.495 172.206 340.84 173.788 340.206L192.636 332.674C192.843 332.591 193.056 332.526 193.275 332.482C194.962 332.148 197.614 332.19 200.678 334.29C208.63 339.739 216.203 357.125 219.972 378.587C224.293 403.197 222.546 429.325 210.846 431.644C210.626 431.687 210.402 431.71 210.177 431.713L190.035 431.895H190.003Z" fill="#371A45"/>
<path d="M168.405 382.427L168.419 382.455C168.666 384.458 168.977 386.484 169.34 388.552C173.446 411.943 182.693 429.747 190.002 428.287C197.091 426.884 199.753 407.826 196.12 385.255C196.018 384.612 195.903 383.955 195.788 383.298C191.682 359.907 182.422 342.106 175.125 343.549C168.467 344.874 165.731 361.724 168.405 382.427Z" fill="white"/>
<path d="M168.419 382.455C168.666 384.458 168.977 386.484 169.34 388.552C173.446 411.943 182.694 429.747 190.002 428.287C197.091 426.884 199.753 407.826 196.12 385.255C193.939 393.906 189.037 409.287 182.224 405.844C178.245 403.822 172.598 392.216 168.419 382.455Z" fill="#D8D8D8"/>
<path d="M172.882 387.922C176.299 407.383 182.941 420.891 187.735 424.175C188.38 424.618 188.953 424.837 189.299 424.761C192.221 424.182 196.745 409.589 192.238 383.925C188.822 364.464 182.18 350.957 177.385 347.672C176.741 347.23 176.168 347.015 175.821 347.087C172.9 347.665 168.377 362.261 172.882 387.922ZM189.17 431.973C187.67 431.973 185.768 431.556 183.666 430.115C176.287 425.06 169.27 408.988 165.79 389.167C161.913 367.092 162.961 342.295 174.421 340.022C176.027 339.704 178.551 339.743 181.455 341.732C188.834 346.787 195.851 362.86 199.33 382.678C203.207 404.756 202.16 429.553 190.699 431.826C190.256 431.913 189.742 431.973 189.17 431.973Z" fill="#371A45"/>
<path d="M136.084 456.019C135.941 430.874 139.819 412.816 149.099 395.291C159.41 375.819 195.103 363.833 202.327 376.042C207.356 384.543 198.167 389.741 195.114 391.181C194.628 391.41 194.449 392.002 194.73 392.461C196.57 395.469 202.396 405.913 202.542 417.795C202.681 429.069 199.899 439.317 186.087 443.954" fill="white"/>
<path d="M132.483 456.04C132.321 437.323 134.626 418.072 142.424 400.803C143.858 397.656 145.235 394.713 147.018 391.696C152.016 383.787 159.686 377.921 167.896 373.73C176.233 369.639 185.552 366.553 195.02 367.846C202.505 368.758 208.661 375.295 207.13 383.236C205.984 388.508 201.47 392.009 197.103 394.215L196.682 394.422C197.639 394.019 198.437 392.643 198.152 391.479C198.126 391.184 197.914 390.767 197.822 390.605L197.85 390.651L198.078 391.027C205.514 403.35 209.222 419.199 203.231 432.895C201.177 437.309 197.512 441.138 193.179 443.261C191.08 444.386 188.863 445.086 186.66 445.66C185.696 445.911 184.711 445.333 184.46 444.369C184.229 443.484 184.699 442.588 185.514 442.246C191.073 439.723 195.473 436.06 197.45 430.459C201.067 418.461 197.88 405.076 191.692 394.404C190.145 392.05 191.307 388.75 193.908 387.763C196.912 386.196 200.763 383.628 200.09 380.007C199.403 376.96 197.103 375.429 193.858 374.952C180.827 373.592 165.529 381.466 156.659 390.859C153.188 394.57 151.09 399.136 149.007 403.718C145.19 412.295 142.68 421.4 141.283 430.724C140.057 439.033 139.65 447.506 139.684 456.012C139.59 460.723 132.647 460.834 132.483 456.04Z" fill="#371A45"/>
<path d="M203.803 456.019C203.803 456.019 207.757 470.944 207.757 479.68L203.803 456.019Z" fill="white"/>
<path d="M207.283 455.097C208.369 461.198 209.211 467.23 209.552 473.412C209.649 475.478 209.695 477.557 209.557 479.68C209.492 480.673 208.634 481.427 207.64 481.362C206.724 481.302 206.014 480.567 205.956 479.68C205.15 472.032 202.738 464.264 200.32 456.934C198.845 452.029 206.14 450.093 207.283 455.097Z" fill="#371A45"/>
<path d="M397.389 473.959C396.589 478.931 391.389 483.462 386.482 483.462C385.334 483.462 383.748 483.211 382.727 482.01C381.872 481.005 381.558 479.481 381.849 477.713C382.648 472.742 387.848 468.219 392.749 468.219C393.901 468.219 395.49 468.47 396.508 469.664C397.357 470.669 397.672 472.193 397.389 473.959ZM392.749 456.441C382.035 456.441 371.944 465.126 370.218 475.837C368.482 486.555 375.77 495.241 386.482 495.241C397.2 495.241 407.291 486.555 409.02 475.837C410.746 465.126 403.467 456.441 392.749 456.441Z" fill="#DDDCDB"/>
<path d="M405.447 470.174C402.695 465.363 397.506 462.24 391.078 462.24C387 462.24 383.008 463.501 379.537 465.656C383.089 462.215 387.844 460.039 392.749 460.039C396.813 460.039 400.358 461.576 402.734 464.365C404.136 466.011 405.051 467.993 405.447 470.174Z" fill="#F5F4F4"/>
<path d="M397.389 473.961H397.4H397.389ZM392.749 471.82C389.626 471.82 385.917 475.084 385.403 478.287C385.258 479.166 385.419 479.608 385.472 479.68C385.513 479.714 385.82 479.862 386.482 479.862C389.605 479.862 393.314 476.598 393.834 473.392C393.975 472.504 393.807 472.055 393.756 471.983C393.731 471.969 393.417 471.82 392.749 471.82ZM386.482 487.063C383.782 487.063 381.475 486.097 379.984 484.34C378.43 482.517 377.831 479.956 378.294 477.13C379.368 470.469 386.122 464.619 392.749 464.619C395.446 464.619 397.753 465.58 399.244 467.323C400.796 469.162 401.395 471.714 400.945 474.528L400.943 474.533C399.867 481.208 393.108 487.063 386.482 487.063ZM392.749 460.039C383.741 460.039 375.226 467.385 373.772 476.411C373.096 480.583 374.065 484.453 376.496 487.314C378.873 490.103 382.418 491.64 386.482 491.64C395.494 491.64 404.009 484.294 405.466 475.263C406.136 471.094 405.168 467.223 402.734 464.365C400.358 461.576 396.813 460.039 392.749 460.039ZM386.482 498.841C380.272 498.841 374.779 496.405 371.013 491.979C367.189 487.487 365.644 481.551 366.663 475.261C368.657 462.899 380.359 452.838 392.749 452.838C398.956 452.838 404.451 455.274 408.218 459.698C412.042 464.188 413.588 470.123 412.574 476.411C410.58 488.78 398.876 498.841 386.482 498.841Z" fill="#371A45"/>
<path d="M435.795 475.842L415.073 539.036L396.522 595.642H294.733L306.217 560.601L334.004 475.842H435.795Z" fill="#EDAE3E"/>
<path d="M415.073 539.036L396.522 595.642H294.733L306.217 560.601C306.217 560.601 315.128 581.06 343.823 584.85C359.412 586.901 373.5 575.427 374.715 559.746C375.263 552.725 377.478 544.895 383.068 537.604C391.239 526.967 405.101 532.628 415.073 539.036Z" fill="#D18C28"/>
<path d="M299.705 592.039H393.915L430.823 479.44H336.613L299.705 592.039ZM396.524 599.24H294.736C293.581 599.24 292.497 598.684 291.82 597.751C291.144 596.817 290.955 595.614 291.315 594.517L330.583 474.719C331.067 473.239 332.448 472.239 334.004 472.239H435.792C436.947 472.239 438.031 472.792 438.708 473.726C439.386 474.662 439.573 475.865 439.215 476.96L399.947 596.76C399.461 598.24 398.083 599.24 396.524 599.24Z" fill="#371A45"/>
<path d="M414.522 491.696H353.965L358.914 475.84H419.473L414.522 491.696Z" fill="#DDDCDB"/>
<path d="M414.524 491.691L416.548 485.212H416.55L414.524 491.691Z" fill="#FAE7C5"/>
<path d="M414.524 491.691H353.967L358.918 475.842H365.568L364.444 479.447C363.551 482.305 365.688 485.212 368.682 485.212H416.548L414.524 491.691Z" fill="#F5F4F4"/>
<path d="M358.861 488.095H411.876L414.577 479.44H361.562L358.861 488.095ZM414.522 495.296H353.965C352.819 495.296 351.743 494.752 351.063 493.83C350.385 492.908 350.187 491.716 350.528 490.624L355.477 474.768C355.947 473.263 357.34 472.239 358.914 472.239H419.473C420.619 472.239 421.695 472.783 422.373 473.707C423.053 474.629 423.251 475.819 422.91 476.911L417.959 492.77C417.491 494.273 416.099 495.296 414.522 495.296Z" fill="#371A45"/>
<path d="M429.979 539.188C428.548 547.938 426.983 555.238 425.263 561.214C425.263 561.214 425.263 561.224 425.254 561.249C420.752 576.974 415.253 583.617 408.674 583.608C376.171 583.573 375.613 555.454 384.372 539.414C393.959 521.854 418.503 528.64 418.503 528.64L422.905 515.202C422.905 515.202 432.95 521.015 429.979 539.188Z" fill="white"/>
<path d="M408.688 583.608C408.683 583.608 408.679 583.608 408.674 583.608C407.153 583.605 405.703 583.543 404.318 583.423C401.695 583.195 399.311 582.757 397.158 582.144C384.292 578.479 379.55 568.443 379.557 558.031C379.562 551.476 381.447 544.771 384.373 539.414C384.373 539.414 379.385 564.75 398.449 570.755C401.98 571.866 405.085 572.327 407.805 572.327C420.743 572.327 425 561.897 425.254 561.249C420.757 576.962 415.26 583.608 408.688 583.608Z" fill="#C5BDC9"/>
<path d="M407.685 530.899C400.816 530.899 392.106 532.768 387.53 541.143C383.259 548.963 380.996 561.318 386.117 569.96C390.061 576.616 397.652 579.996 408.681 580.007H408.686C413.69 580.007 420.828 572.822 426.425 538.609C427.766 530.415 426.204 525.215 424.424 522.126L421.923 529.76C421.324 531.588 419.39 532.623 417.541 532.109C417.156 532.003 412.964 530.899 407.685 530.899ZM408.688 587.208H408.674C391.55 587.19 383.586 579.816 379.924 573.631C373.331 562.508 375.821 547.564 381.212 537.692C389.874 521.829 408.43 523.134 416.087 524.445L419.484 514.08C419.821 513.047 420.607 512.224 421.621 511.837C422.633 511.45 423.767 511.539 424.708 512.083C425.206 512.371 436.867 519.379 433.531 539.773C428.165 572.576 420.501 587.208 408.688 587.208Z" fill="#371A45"/>
<path d="M173.897 525.164C172.786 525.164 171.745 524.475 171.353 523.366C170.854 521.96 171.589 520.418 172.995 519.92C205.394 508.428 202.182 460.942 202.146 460.463C202.033 458.978 203.147 457.681 204.633 457.565C206.125 457.453 207.416 458.566 207.53 460.05C207.694 462.171 211.107 512.132 174.8 525.01C174.502 525.113 174.197 525.164 173.897 525.164Z" fill="#371A45"/>
<path d="M595.206 455.931C594.916 455.931 594.648 455.851 594.402 455.675C591.463 453.582 594.24 440.204 604.488 431.902C610.013 427.421 616.578 425.8 621.573 425.8C626.174 425.8 629.442 427.174 629.345 428.963C629.069 434.084 621.057 432.616 610.126 441.271C603.986 446.135 598.364 455.931 595.206 455.931Z" fill="#BCE4FA"/>
<path d="M602.94 474.431C600.978 474.431 598.62 473.5 596.373 471.183C592.348 467.032 591.622 460.744 595.144 459.509C595.623 459.34 596.094 459.262 596.555 459.262C600.024 459.262 602.937 463.665 605.687 466.631C609.308 470.536 606.953 474.431 602.94 474.431Z" fill="#BCE4FA"/>
<path d="M629.348 387.503C627.361 387.503 625.748 385.892 625.748 383.902V280.413C625.748 278.426 627.361 276.812 629.348 276.812C631.337 276.812 632.948 278.426 632.948 280.413V383.902C632.948 385.892 631.337 387.503 629.348 387.503Z" fill="#371A45"/>
<path d="M645.972 295.155C645.972 296.923 644.538 298.357 642.768 298.357C641 298.357 639.564 296.923 639.564 295.155C639.564 293.385 641 291.951 642.768 291.951C644.538 291.951 645.972 293.385 645.972 295.155Z" fill="#371A45"/>
<path d="M645.972 335.818C645.972 337.586 644.538 339.019 642.768 339.019C641 339.019 639.564 337.586 639.564 335.818C639.564 334.048 641 332.614 642.768 332.614C644.538 332.614 645.972 334.048 645.972 335.818Z" fill="#371A45"/>
<path d="M645.972 376.48C645.972 378.248 644.538 379.682 642.768 379.682C641 379.682 639.564 378.248 639.564 376.48C639.564 374.71 641 373.276 642.768 373.276C644.538 373.276 645.972 374.71 645.972 376.48Z" fill="#371A45"/>
<path d="M570.932 253.465C569.925 253.465 569.054 253.024 568.353 252.075C557.646 237.56 589.769 192.352 607.377 182.12C608.289 181.59 609.029 181.339 609.612 181.339C614.552 181.339 608.114 199.371 598.825 217.401C589.536 235.433 577.395 253.465 570.932 253.465Z" fill="#FDC3C3"/>
<path d="M161.153 305.009C155.638 305.009 151.653 301.024 151.653 295.201C151.653 289.685 155.484 285.394 161.153 285.394C166.517 285.394 170.655 289.685 170.655 295.201C170.655 301.024 166.517 305.009 161.153 305.009ZM164.985 273.138C159.316 271.144 149.509 263.941 149.509 255.359C149.509 249.537 153.032 244.789 162.84 236.972C171.268 230.385 175.557 225.938 175.557 220.27C175.557 214.755 171.881 210.004 165.139 210.004C155.024 210.004 149.048 219.503 147.057 219.503C144.758 219.503 140.467 215.981 140.467 212.302C140.467 210.156 141.233 208.623 143.378 206.632C148.283 202.494 155.178 201.116 159.929 201.116C173.872 201.116 184.292 213.222 184.292 225.173C184.292 231.611 182.147 237.127 173.413 244.328C165.75 250.763 161.614 253.674 161.614 258.732C161.614 262.869 163.759 265.628 167.897 269.459L164.985 273.138Z" fill="white"/>
<path d="M159.929 193.915C156.963 193.915 146.669 194.434 138.736 201.13C138.648 201.201 138.563 201.277 138.48 201.356C136.052 203.608 133.266 206.888 133.266 212.302C133.266 220.058 140.849 226.704 147.057 226.704C150.45 226.704 152.695 224.666 154.866 222.695C157.419 220.376 160.914 217.205 165.139 217.205C166.102 217.205 168.357 217.205 168.357 220.27C168.357 222.608 165.567 225.701 158.405 231.3L158.353 231.341C148.191 239.439 142.308 245.964 142.308 255.359C142.308 265.723 151.113 274.267 158.938 278.329C150.54 279.366 144.453 286.274 144.453 295.201C144.453 304.898 151.633 312.21 161.154 312.21C170.675 312.21 177.856 304.898 177.856 295.201C177.856 288.18 173.88 282.28 168.046 279.654C169.033 279.191 169.923 278.502 170.631 277.605L173.543 273.929C175.877 270.978 175.549 266.73 172.788 264.174C168.815 260.497 168.815 259.598 168.815 258.732C168.815 257.531 172.11 254.788 175.926 251.609C176.593 251.056 177.291 250.473 178.021 249.86C187.464 242.067 191.493 234.684 191.493 225.173C191.493 217.431 188.226 209.594 182.529 203.67C176.478 197.379 168.452 193.915 159.929 193.915ZM161.154 285.394C166.517 285.394 170.655 289.685 170.655 295.201C170.655 301.024 166.517 305.009 161.154 305.009C155.638 305.009 151.654 301.024 151.654 295.201C151.654 289.685 155.484 285.394 161.154 285.394ZM159.929 201.116C173.872 201.116 184.292 213.219 184.292 225.173C184.292 231.611 182.147 237.127 173.413 244.328C165.751 250.763 161.614 253.675 161.614 258.732C161.614 262.869 163.759 265.628 167.897 269.459L164.985 273.136C159.316 271.144 149.509 263.941 149.509 255.359C149.509 249.537 153.032 244.789 162.84 236.972C171.268 230.385 175.558 225.938 175.558 220.27C175.558 214.755 171.881 210.004 165.139 210.004C155.025 210.004 149.048 219.503 147.057 219.503C144.758 219.503 140.467 215.981 140.467 212.302C140.467 210.156 141.234 208.623 143.379 206.632C148.283 202.494 155.178 201.116 159.929 201.116Z" fill="#371A45"/>
</g>
</svg>
