<svg width="98" height="97" viewBox="0 0 98 97" fill="none" xmlns="http://www.w3.org/2000/svg">
<circle cx="49" cy="48.5" r="48.5" fill="#001D3C"/>
<path d="M67.5832 24.75H31.4165C29.3611 24.75 27.3898 25.5665 25.9364 27.0199C24.483 28.4733 23.6665 30.4446 23.6665 32.5V71.25C23.6673 71.7078 23.7897 72.1571 24.0212 72.552C24.2527 72.9469 24.585 73.2732 24.984 73.4975C25.3701 73.7163 25.8061 73.832 26.2498 73.8333C26.7135 73.8332 27.1686 73.7083 27.5673 73.4717L39.1665 66.445C39.5952 66.1898 40.0887 66.0641 40.5873 66.0833H67.5832C69.6386 66.0833 71.6098 65.2668 73.0632 63.8134C74.5167 62.36 75.3332 60.3888 75.3332 58.3333V32.5C75.3332 30.4446 74.5167 28.4733 73.0632 27.0199C71.6098 25.5665 69.6386 24.75 67.5832 24.75ZM39.1665 48C38.6556 48 38.1561 47.8485 37.7313 47.5646C37.3065 47.2808 36.9753 46.8773 36.7798 46.4053C36.5843 45.9332 36.5331 45.4138 36.6328 44.9127C36.7325 44.4116 36.9785 43.9513 37.3398 43.59C37.7011 43.2287 38.1614 42.9827 38.6625 42.883C39.1636 42.7833 39.6831 42.8345 40.1551 43.03C40.6271 43.2255 41.0306 43.5566 41.3145 43.9814C41.5983 44.4063 41.7498 44.9057 41.7498 45.4167C41.7498 46.1018 41.4777 46.7589 40.9932 47.2434C40.5087 47.7278 39.8516 48 39.1665 48V48ZM49.4998 48C48.9889 48 48.4894 47.8485 48.0646 47.5646C47.6398 47.2808 47.3087 46.8773 47.1131 46.4053C46.9176 45.9332 46.8665 45.4138 46.9661 44.9127C47.0658 44.4116 47.3119 43.9513 47.6731 43.59C48.0344 43.2287 48.4947 42.9827 48.9959 42.883C49.497 42.7833 50.0164 42.8345 50.4884 43.03C50.9605 43.2255 51.3639 43.5566 51.6478 43.9814C51.9317 44.4063 52.0832 44.9057 52.0832 45.4167C52.0832 46.1018 51.811 46.7589 51.3265 47.2434C50.8421 47.7278 50.185 48 49.4998 48ZM59.8332 48C59.3222 48 58.8228 47.8485 58.3979 47.5646C57.9731 47.2808 57.642 46.8773 57.4465 46.4053C57.251 45.9332 57.1998 45.4138 57.2995 44.9127C57.3992 44.4116 57.6452 43.9513 58.0065 43.59C58.3678 43.2287 58.8281 42.9827 59.3292 42.883C59.8303 42.7833 60.3497 42.8345 60.8218 43.03C61.2938 43.2255 61.6973 43.5566 61.9811 43.9814C62.265 44.4063 62.4165 44.9057 62.4165 45.4167C62.4165 46.1018 62.1443 46.7589 61.6599 47.2434C61.1754 47.7278 60.5183 48 59.8332 48Z" fill="#007BFF"/>
</svg>
