<svg width="98" height="97" viewBox="0 0 98 97" fill="none" xmlns="http://www.w3.org/2000/svg">
<circle cx="49" cy="48.5" r="48.5" fill="#001D3C"/>
<g clip-path="url(#clip0_32_74)">
<path d="M66.8282 32.0844C63.586 30.5965 60.1649 29.5345 56.65 28.925C56.6182 28.9197 56.5855 28.9243 56.5564 28.9383C56.5273 28.9523 56.5032 28.9749 56.4875 29.0031C56.0469 29.7844 55.5594 30.8063 55.2188 31.6063C51.4301 31.0313 47.5763 31.0313 43.7875 31.6063C43.4076 30.7151 42.9777 29.846 42.5 29.0031C42.484 28.9752 42.4599 28.9528 42.4309 28.9389C42.4019 28.925 42.3693 28.9201 42.3375 28.925C38.8219 29.5313 35.4 30.5938 32.1594 32.0844C32.1317 32.095 32.1085 32.1149 32.0938 32.1406C25.6125 41.825 23.8344 51.2719 24.7063 60.6C24.7094 60.6438 24.7375 60.6875 24.7719 60.7156C28.5461 63.5113 32.7675 65.6458 37.2563 67.0281C37.288 67.0381 37.322 67.0378 37.3535 67.0271C37.385 67.0164 37.4122 66.996 37.4313 66.9688C38.3938 65.6563 39.25 64.2719 39.9875 62.8156C40.0029 62.7857 40.0082 62.7515 40.0025 62.7183C39.9969 62.685 39.9807 62.6545 39.9563 62.6313C39.9401 62.616 39.921 62.6043 39.9 62.5969C38.5537 62.0795 37.2497 61.4578 36 60.7375C35.9651 60.7177 35.9392 60.6853 35.9275 60.6469C35.9159 60.6085 35.9195 60.5671 35.9375 60.5313C35.9482 60.508 35.9643 60.4876 35.9844 60.4719C36.2469 60.275 36.5094 60.0688 36.7594 59.8625C36.7815 59.8448 36.808 59.8333 36.8361 59.8295C36.8641 59.8256 36.8927 59.8295 36.9188 59.8406C45.1032 63.5781 53.9625 63.5781 62.0469 59.8406C62.0739 59.829 62.1036 59.8248 62.1328 59.8287C62.1619 59.8325 62.1895 59.8442 62.2125 59.8625C62.4625 60.0688 62.725 60.275 62.9875 60.4719C63.0088 60.4874 63.0259 60.508 63.0373 60.5318C63.0486 60.5555 63.0539 60.5818 63.0527 60.6081C63.0515 60.6344 63.0437 60.66 63.0302 60.6826C63.0166 60.7052 62.9977 60.724 62.975 60.7375C61.7282 61.4644 60.4226 62.0853 59.0719 62.5938C59.0504 62.6016 59.0308 62.614 59.0146 62.6302C58.9984 62.6464 58.986 62.666 58.9782 62.6875C58.9709 62.7084 58.968 62.7305 58.9697 62.7525C58.9713 62.7746 58.9774 62.796 58.9875 62.8156C59.7375 64.2688 60.5969 65.6563 61.5407 66.9688C61.5597 66.996 61.587 67.0164 61.6184 67.0271C61.6499 67.0378 61.684 67.0381 61.7157 67.0281C66.2119 65.6501 70.4403 63.5153 74.2188 60.7156C74.2377 60.7025 74.2534 60.6853 74.2648 60.6653C74.2762 60.6453 74.2829 60.623 74.2844 60.6C75.3282 49.8156 72.5375 40.4469 66.8907 32.1438C66.885 32.1301 66.8765 32.1177 66.8657 32.1075C66.8549 32.0972 66.8422 32.0894 66.8282 32.0844V32.0844ZM41.2094 54.9188C38.7438 54.9188 36.7157 52.6563 36.7157 49.8813C36.7157 47.1031 38.7063 44.8406 41.2094 44.8406C43.7313 44.8406 45.7407 47.1219 45.7032 49.8813C45.7032 52.6563 43.7125 54.9188 41.2094 54.9188ZM57.8219 54.9188C55.3594 54.9188 53.3282 52.6563 53.3282 49.8813C53.3282 47.1031 55.3188 44.8406 57.8219 44.8406C60.3438 44.8406 62.3563 47.1219 62.3157 49.8813C62.3157 52.6563 60.3438 54.9188 57.8219 54.9188Z" fill="#007BFF"/>
</g>
<defs>
<clipPath id="clip0_32_74">
<rect width="50" height="50" fill="white" transform="translate(24.5 23)"/>
</clipPath>
</defs>
</svg>
