<svg width="98" height="97" viewBox="0 0 98 97" fill="none" xmlns="http://www.w3.org/2000/svg">
<circle cx="49" cy="48.5" r="48.5" fill="#001D3C"/>
<path d="M66.5208 29.0625H32.6875C30.7647 29.0625 28.9206 29.8263 27.561 31.186C26.2013 32.5456 25.4375 34.3897 25.4375 36.3125V60.4792C25.4375 62.402 26.2013 64.2461 27.561 65.6057C28.9206 66.9653 30.7647 67.7292 32.6875 67.7292H66.5208C68.4436 67.7292 70.2877 66.9653 71.6474 65.6057C73.007 64.2461 73.7708 62.402 73.7708 60.4792V36.3125C73.7708 34.3897 73.007 32.5456 71.6474 31.186C70.2877 29.8263 68.4436 29.0625 66.5208 29.0625ZM66.5208 33.8958L50.8125 44.6983C50.4451 44.9104 50.0284 45.0221 49.6042 45.0221C49.18 45.0221 48.7632 44.9104 48.3958 44.6983L32.6875 33.8958H66.5208Z" fill="#007BFF"/>
</svg>
