<svg width="39" height="39" viewBox="0 0 39 39" fill="none" xmlns="http://www.w3.org/2000/svg">
<path d="M36.383 2.91433C36.3691 2.84696 36.3362 2.78495 36.2883 2.73558C36.2404 2.6862 36.1795 2.6515 36.1126 2.63554C31.6512 1.54476 21.3428 5.43181 15.7579 11.0144C14.7618 12.0025 13.8537 13.0755 13.0439 14.2213C11.3217 14.0689 9.59941 14.1961 8.13158 14.836C3.99011 16.6588 2.78431 21.415 2.44839 23.4609C2.42934 23.5729 2.43653 23.6878 2.46939 23.7965C2.50225 23.9053 2.55989 24.0049 2.63778 24.0876C2.71567 24.1703 2.81168 24.2338 2.91826 24.2731C3.02484 24.3124 3.13908 24.3264 3.25201 24.3141L9.90257 23.5805C9.90732 24.0819 9.93758 24.5828 9.99322 25.0811C10.0267 25.4272 10.1803 25.7506 10.4274 25.9952L13.0028 28.5644C13.2476 28.8112 13.5709 28.9648 13.9168 28.9986C14.4124 29.0541 14.9104 29.0843 15.409 29.0893L14.6793 35.7315C14.6671 35.8443 14.6813 35.9585 14.7206 36.065C14.76 36.1715 14.8235 36.2675 14.9061 36.3453C14.9888 36.4232 15.0883 36.4808 15.197 36.5137C15.3057 36.5467 15.4205 36.554 15.5324 36.5351C17.5746 36.2075 22.3392 35.0017 24.1513 30.8603C24.7911 29.3924 24.9221 27.6786 24.7744 25.9647C25.9229 25.1549 26.9987 24.2465 27.9896 23.2499C33.592 17.6757 37.457 7.59738 36.383 2.91433ZM22.4001 16.6001C21.8885 16.0889 21.5401 15.4374 21.3988 14.7281C21.2575 14.0188 21.3298 13.2835 21.6064 12.6153C21.8831 11.9471 22.3517 11.3759 22.9531 10.974C23.5544 10.5722 24.2614 10.3577 24.9846 10.3577C25.7078 10.3577 26.4148 10.5722 27.0162 10.974C27.6175 11.3759 28.0861 11.9471 28.3628 12.6153C28.6394 13.2835 28.7117 14.0188 28.5704 14.7281C28.4292 15.4374 28.0807 16.0889 27.5691 16.6001C27.2299 16.9398 26.827 17.2093 26.3835 17.3932C25.9401 17.5771 25.4647 17.6718 24.9846 17.6718C24.5045 17.6718 24.0291 17.5771 23.5857 17.3932C23.1422 17.2093 22.7393 16.9398 22.4001 16.6001Z" fill="white"/>
<path d="M12.8273 30.4253C12.4099 30.8435 11.7404 31.0065 10.9345 31.1459C9.12387 31.4544 7.52502 29.8898 7.85027 28.0594C7.97443 27.3655 8.34158 26.3928 8.5701 26.1643C8.62005 26.1153 8.65329 26.0518 8.66511 25.9829C8.67693 25.9139 8.66673 25.843 8.63595 25.7802C8.60517 25.7173 8.55538 25.6658 8.49365 25.6329C8.43192 25.6 8.36139 25.5874 8.29207 25.5968C7.27956 25.7207 6.3376 26.1797 5.61615 26.9009C3.82535 28.6932 3.65625 35.3438 3.65625 35.3438C3.65625 35.3438 10.3106 35.1747 12.1014 33.3823C12.8248 32.6615 13.2844 31.7181 13.4063 30.7041C13.4344 30.3857 13.0467 30.1961 12.8273 30.4253V30.4253Z" fill="white"/>
</svg>
