<svg width="98" height="97" viewBox="0 0 98 97" fill="none" xmlns="http://www.w3.org/2000/svg">
<circle cx="49" cy="48.5" r="48.5" fill="#001D3C"/>
<path d="M49.4999 21.9821C55.2258 21.9821 60.7171 24.2567 64.7659 28.3055C68.8146 32.3542 71.0892 37.8456 71.0892 43.5714C71.0892 52.6943 64.6789 62.6364 52.0242 73.5041C51.3206 74.1086 50.4234 74.4406 49.4958 74.4398C48.5682 74.4389 47.6716 74.1054 46.969 73.4997L46.132 72.7734C34.0376 62.1891 27.9106 52.4905 27.9106 43.5714C27.9106 37.8456 30.1852 32.3542 34.234 28.3055C38.2828 24.2567 43.7741 21.9821 49.4999 21.9821V21.9821ZM49.4999 35.2678C47.2977 35.2678 45.1856 36.1427 43.6284 37.6999C42.0712 39.2571 41.1964 41.3692 41.1964 43.5714C41.1964 45.7736 42.0712 47.8857 43.6284 49.4429C45.1856 51.0001 47.2977 51.875 49.4999 51.875C51.7022 51.875 53.8142 51.0001 55.3714 49.4429C56.9287 47.8857 57.8035 45.7736 57.8035 43.5714C57.8035 41.3692 56.9287 39.2571 55.3714 37.6999C53.8142 36.1427 51.7022 35.2678 49.4999 35.2678Z" fill="#007BFF"/>
</svg>
